<?xml version='1.0' encoding='utf-8'?>
<svg xmlns="http://www.w3.org/2000/svg" enable-background="new 0 0 5002 5002" version="1.1" viewBox="0 0 5002 5002"> <path d="m5001 1v3994.1c-207.47-0.781-414.99-0.928-622.46-0.391-2.295 0-3.711-0.683-4.15-2.051-0.488-1.367-0.146-2.978 1.025-4.834 6.934-32.666 10.84-66.016 11.719-100.15 1.758-67.383 3.174-137.89 4.199-211.47 0.049-1.709 1.27-3.125 2.93-3.369l13.184-2.1c2.588-0.391 4.639-2.393 5.127-4.98 1.563-8.203 1.416-17.383-0.488-27.588-0.635-3.418-3.564-5.957-7.031-6.055-63.135-1.806-128.12-1.66-195.07 0.391-1.904 0.049-3.809-0.83-5.761-2.686 28.613-113.04 74.853-218.07 138.67-315.04 1.709-2.588 3.125-4.59 4.248-6.055 28.809-9.472 56.445-20.117 82.911-31.933 20.605-9.229 39.794-20.703 57.568-34.424 29.834-23.047 38.623-54.883 50-90.43 18.945-59.082 88.916-77.588 112.21-123.93 9.375-18.701 7.714-38.086-14.844-45.02-9.424-2.881-21.289-3.125-35.645-0.683-55.224 9.375-100.88 34.57-136.91 75.537-5.665 6.396-14.014 17.92-25.098 34.522-14.648 22.021-35.157 37.403-59.961 52.539-12.549 7.666-21.973 15.185-28.223 22.559-28.613 33.594-35.058 80.322-21.143 122.41 2.49 7.52 5.371 14.99 8.594 22.461-56.689 86.377-98.975 179.25-126.86 278.71-0.098 0.342-0.391 0.586-0.782 0.586h-1.367c-1.221 0-2.148-1.025-2.002-2.246 13.721-120.41 22.559-196.78 26.514-229.05 13.818-112.79 33.447-231.54 58.79-356.2 23.388-10.156 43.408-25.049 60.009-44.727 39.941-47.315 62.256-98.487 66.943-153.61 3.809-45.166 9.668-88.428 30.469-120.12 18.945-28.906 31.445-48.535 37.548-58.838 33.252-56.446 47.217-116.02 41.895-178.76-0.879-10.205-3.565-19.922-8.008-29.199-30.078-62.597-101.12 15.527-122.8 44.971-33.447 45.362-63.281 96.729-89.502 154.1-49.121 107.52-71.338 231.1-38.33 345.7 0.537 1.953 3.467 9.863 8.691 23.682 3.369 8.838 4.932 16.992 4.736 24.561-39.257 204.3-67.578 409.96-85.01 616.99-2.002 2.978-6.396 4.199-13.184 3.662-5.957 0.732-10.107 0.098-12.402-1.953-0.879-0.781-1.318-1.856-1.221-2.979 8.447-115.43 9.912-234.62 4.493-357.62-4.053-92.53-9.424-175.49-16.113-248.88l-12.891-144.78-2.051-46.875c-0.439-5.176 0.146-9.473 1.807-12.891 27.588-56.592 52.49-110.64 70.361-170.22 14.209-47.412 18.115-95.459 11.621-144.14-2.49-18.603-6.445-42.188-11.865-70.703-6.201-32.519-8.301-67.92-4.932-104.4 6.641-71.826 8.105-136.43-26.123-201.17-13.184-25-41.504-44.434-65.186-21.045-14.355 14.209-23.389 32.715-27.1 55.615-4.541 27.881-7.324 60.254-8.349 97.07-0.586 22.412-1.611 38.233-3.125 47.461-4.443 28.222-7.178 43.848-8.105 46.826-5.615 17.823-11.816 37.598-18.652 59.375-16.504 52.49-18.799 101.07-10.303 158.89 7.763 52.783 18.945 103.03 33.545 150.68 12.012 39.16 31.689 74.61 58.984 106.3l6.689 59.864 12.256 152.25c10.01 142.04 18.75 292.09 16.699 427.3-0.391 27.686-2.783 81.885-7.227 162.6-0.098 1.855-1.66 3.32-3.516 3.32h-19.629c-1.806 0-3.32-1.513-3.271-3.32 0.391-45.801 0.146-75.977-0.781-90.576-4.492-72.51-9.961-142.82-16.455-210.84-6.055-63.379-17.529-137.94-34.424-223.73 12.744-16.846 20.996-38.427 24.756-64.746 3.564-24.56 4.833-47.754 3.906-69.482-0.44-10.156-3.614-32.324-9.62-66.504-3.809-21.875-8.935-40.625-15.332-56.201-19.776-48.242-39.209-91.699-72.217-129.05-33.399-37.793-51.123-55.371-75.293-83.545-17.822-20.752-74.951-78.955-103.42-49.658-17.334 17.871-3.857 57.764 4.785 78.272 11.719 27.685 37.988 61.914 48.974 87.402 9.912 23.096 16.357 52.295 19.336 87.598l0.39 9.18-412.89 0.342c-1.563 0-2.783-1.318-2.637-2.881 6.69-69.678 6.299-135.79-1.172-198.34-7.714-64.649-28.222-115.53-90.82-143.26-24.707-10.938-51.514-18.164-80.469-21.728 0.097-8.056-1.319-15.723-4.2-23.096 32.666-25.146 55.567-54.834 68.653-89.111 20.898-54.688 15.771-106.98-15.381-156.88-18.604-29.688-47.754-45.557-72.363-66.553-38.623-33.008-38.964-73.242-46.191-127.73-5.078-38.477-22.119-68.604-51.172-90.332-17.09-12.842-45.556-25.293-64.453-35.4-75.977-40.625-83.691-113.82-96.192-189.55-17.236-104.98-94.238-177.39-204.54-165.87-23.877 2.491-48.096 11.621-71.582 16.358-27.49 5.615-46.24 20.02-67.09 33.154l0.83-1171c0-2.881-2.344-5.176-5.225-5.176h-2257.2c-1.758 0-3.223 1.465-3.223 3.223v2773c0 2.002 1.66 3.662 3.711 3.662l725.05 0.684-168.16 803.91-995.65-0.1v-3993.6h5e3m-840.18 916.02c2.978 3.564 6.152 6.348 9.521 8.301l1.904 64.307c0.049 1.465-1.025 2.783-2.49 2.93-9.717 1.123-18.506 0.635-26.367-1.464l-11.523-43.897c3.321-5.518 4.883-9.619 4.736-12.304-1.904-33.106-8.301-60.986-19.141-83.643-10.596-22.07-24.511-49.902-41.748-83.545-9.668-18.799-35.303-54.492-58.984-45.02-6.103 2.442-9.961 7.764-11.474 15.967-4.395 23.828 10.693 47.217 25.537 66.553 7.178 9.326 9.131 17.236 9.912 30.029 1.807 28.467 19.971 45.361 37.988 64.355 3.516 3.711 6.201 8.057 7.91 12.842 6.836 18.945 14.648 36.084 36.328 40.82l15.333 36.426c-1.319 1.416-2.637 2.051-3.956 1.953-26.416-1.612-53.027-2.49-79.931-2.637-5.176-0.049-9.375 4.101-9.375 9.277v6.348c0 4.541 3.906 8.154 8.447 7.764 5.615-0.44 9.57 0.439 11.865 2.685-3.027 43.555 0.293 106.1 28.955 141.36 0.586 0.732 0.098 1.855-0.879 1.855l-171.19 0.439c46.24-57.617 67.09-130.18 51.66-202.59-10.009-47.07-34.57-94.482-68.359-127.1-92.529-89.209-237.65-92.432-333.54-7.226-96.533 85.742-111.82 236.23-27.441 336.96l-216.21-0.195c-1.709 0-3.076 1.367-3.076 3.076v43.945c0 1.611 1.27 2.881 2.832 2.881h38.965c1.953 0 3.564 1.563 3.564 3.516v40.43c0 1.416 1.172 2.588 2.588 2.588h33.496c1.611 0 2.881-1.27 2.881-2.832v-40.918c0-1.66 1.318-2.978 2.978-2.978h933.1c0.635 0 1.172 0.537 1.172 1.172v42.969c0 2.1 1.66 3.76 3.76 3.76h32.129c2.002 0 3.662-1.66 3.662-3.711v-41.309c0-1.904 1.514-3.418 3.37-3.418h38.623c1.563 0 2.832-1.27 2.832-2.833v-43.701c0-1.758-1.416-3.174-3.174-3.174h-178.96c-0.684 0-1.074-0.733-0.732-1.318 24.609-40.674 27.979-92.285 26.563-138.52 0.537-2.685 4.639-4.248 12.305-4.687 6.103-0.342 10.351-6.104 8.935-12.012l-0.048-0.244c-1.612-6.641-7.617-11.182-14.404-10.937-20.068 0.733-40.088 1.611-60.059 2.588-1.807 0.097-2.49-0.977-2.002-3.174l17.041-22.022c1.221-1.563 3.125-2.49 5.078-2.539 35.889-0.244 45.41-11.621 70.215-34.473 20.85-19.238 48.34-30.371 54.785-59.521 1.075-4.932-1.27-10.01-5.712-12.403-19.385-10.351-74.902 31.153-90.137 45.41-12.061 11.279-20.654 23.828-25.879 37.646l-10.498 17.383-22.949 31.738c-3.956 1.904-6.543 1.856-7.813-0.147-0.146-14.063 3.809-27.002 11.768-38.867l26.855-21.533c0.342-0.293 0.684-0.586 0.928-0.928 9.423-11.035 15.087-19.043 16.894-24.072 9.717-26.611 20.264-49.267 31.592-67.969 12.109-20.02 26.758-56.25 17.334-78.565-23.242-54.834-85.4 64.258-92.725 77.588-16.113 29.248-25.391 58.838-27.881 88.769-1.367 16.455 3.857 27.246 15.625 32.422l-6.641 30.81c-2.539 5.908-7.227 7.471-14.111 4.736-1.416-0.537-2.392-1.855-2.49-3.369l-5.419-67.334c-0.342-10.938 1.269-22.168 4.736-33.692 10.547-31.348 16.943-65.625 19.141-102.88 2.294-37.744-4.834-63.428-22.266-93.799-8.301-14.453-12.988-24.121-14.111-28.955-5.371-23.291-22.802-100.64-53.223-97.412-4.101 0.44-7.763 2.832-10.938 7.178-14.013 19.043-11.182 55.224-5.127 77.978 1.904 7.08 4.59 15.479 8.056 25.293 1.465 4.151 2.442 8.448 2.93 12.842 1.367 11.573 0.927 31.885 5.517 49.072 6.104 22.949 14.111 45.899 23.975 68.799 0.928 2.198 1.416 4.59 1.416 6.983 0.049 5.127-1.172 16.553-3.662 34.229-2.441 17.773 0.537 34.863 8.984 51.27 0.586 1.123 1.416 2.148 2.393 2.93l17.528 14.698z" fill="#F6EEE6"/> <path d="m2700.9 1586.4-3.565 2.246-0.586-1170c0-1.611-1.269-2.881-2.832-2.881h-2249.9c-1.563 0-2.832 1.27-2.832 2.881v2761.1c0 2.49 2.051 4.492 4.541 4.492l719.68 1.319c0.586 2.588 0.391 4.345-0.537 5.225l-725.05-0.684c-2.051 0-3.711-1.66-3.711-3.662v-2773c0-1.758 1.465-3.223 3.223-3.223h2257.2c2.881 0 5.225 2.295 5.225 5.176l-0.831 1171z" fill="#797E82"/> <path d="m2697.3 1588.6-22.998 26.807c-1.367 1.562-3.027 2.881-4.883 3.808-21.24 10.791-38.623 26.026-52.148 45.752-3.906 5.712-8.057 11.377-12.5 16.992l-0.391-1163.8c1.953-5.469 0.586-8.984-4.101-10.547-0.538-0.147-1.075-0.244-1.612-0.244h-2061.2c-2.393 0-4.297 1.904-4.297 4.297v2578.4c0 1.66 1.318 2.979 2.978 2.979h517.48l126.07-0.684c3.613-0.049 6.299 3.271 5.566 6.738l-17.48 83.887c-0.195 0.781-0.684 1.465-1.367 1.904l-1.074 0.635-719.68-1.319c-2.49 0-4.541-2.002-4.541-4.492v-2761.1c0-1.611 1.27-2.881 2.832-2.881h2249.9c1.563 0 2.832 1.27 2.832 2.881l0.586 1170z" fill="#F6EEE6"/> <path d="m2604.4 518.24c-0.049-0.928-1.172-0.732-3.369 0.488-0.049-1.514-0.342-2.832-0.83-3.955-0.488-1.074-1.563-1.758-2.734-1.758h-1037.8c-0.732 0-1.367 0.635-1.367 1.367l0.732 780.81 0.146 138.96-0.781 394.04c0.098 3.076-0.146 5.713-0.781 7.91-0.098 0.391-0.488 0.635-0.879 0.586-0.391 0-0.684-0.342-0.684-0.732l-1.66-43.213-0.586-410.16-0.586-62.207-0.488-805.52c0-1.074-0.83-1.904-1.855-1.904h-1009.5c-1.416 0-2.588 1.172-2.588 2.588v1239.4l-0.488 78.711v619.53l0.488 630.37c0 1.953 1.611 3.515 3.565 3.515l489.89 1.026c1.514 2.93 8.691 4.59 21.484 4.98h-517.48c-1.66 0-2.978-1.318-2.978-2.979v-2578.4c0-2.393 1.904-4.297 4.297-4.297h2061.2c0.537 0 1.074 0.098 1.612 0.244 4.686 1.563 6.053 5.078 4.1 10.547z" fill="#797E82"/> <path d="m1553.1 1320.4c-13.33 7.471-25.146 17.09-35.498 28.809-19.092 21.582-38.818 42.529-59.228 62.842-6.299 6.299-12.842 15.82-19.678 28.564-14.502 8.008-27.295 17.432-38.281 28.223-61.328 60.156-125.73 126.12-193.21 197.85-56.006-55.518-112.06-110.4-168.26-164.6-30.029-28.955-51.318-53.125-76.465-74.561-27.881-23.779-59.18-14.6-83.301 9.619-73.681 73.877-178.27 176.37-313.82 307.47-6.055 5.859-12.451 11.377-19.141 16.602-0.586 0.488-1.318 0.733-2.1 0.733-3.467 0-5.273-2.344-5.469-6.983v-1239.4c0-1.416 1.172-2.588 2.588-2.588h1009.5c1.025 0 1.855 0.83 1.855 1.904l0.49 805.52m-143.85-360.35c-14.258-10.596-30.469-17.773-48.682-21.533-2.393-0.488-4.492-1.953-5.762-4.053-3.32-5.615-5.811-13.477-9.18-18.506-15.674-23.389-37.695-30.469-66.162-21.192-5.029 1.66-12.549 7.764-22.51 18.311-1.611 1.709-3.76 2.783-6.104 3.076-12.939 1.514-24.609 5.225-35.107 11.035-1.611 0.879-3.467 1.367-5.371 1.416-13.965 0.244-24.902 2.295-32.813 6.152-20.752 10.107-36.914 18.066-48.486 23.779-3.076 1.563-2.002 6.201 1.465 6.201h277.2c2.491 2e-3 3.517-3.221 1.515-4.686m-176.66 331.25c3.516 0 4.785-4.639 1.807-6.445-10.742-6.592-24.365-12.891-40.82-18.946-31.201-11.474-39.16-38.33-58.594-54.98-30.322-25.977-65.332-31.299-105.08-16.016-1.416 0.537-3.076 0.391-4.346-0.488-34.375-23.194-63.086-6.983-81.006 25.293-0.732 1.318-2.295 2.002-3.76 1.611-29.688-7.666-52.93-12.793-74.024 12.842-0.781 0.928-3.662 4.785-8.594 11.474-1.025 1.367-2.637 2.197-4.394 2.197h-25.391c-9.277 0-18.164 3.711-24.707 10.254l-25 24.951c-3.027 3.076-0.879 8.252 3.418 8.252h450.49v1e-3z" fill="#fff"/> <path d="m2601 518.72-1.709 1069.4-55.176-64.209c-0.83-0.928-1.953-1.514-3.174-1.611-12.109-0.83-33.349 1.758-63.769 7.666-13.623 2.685-24.072 5.908-31.299 9.766-13.574 7.226-22.559 22.607-32.422 36.377-1.758 2.441-5.469 2.295-6.982-0.342l-21.436-37.109c-1.416-2.539-4.59-3.516-7.227-2.295-21.728 10.107-43.018 12.695-63.916 7.861-1.563-0.342-3.223 0.146-4.297 1.318-26.025 27.686-49.658 57.324-70.996 88.868-1.221 1.758-3.76 2.002-5.225 0.439l-180.18-184.77-84.18-86.23c-4.297-4.395-8.252-8.789-11.865-13.233-4.98-6.104-8.594-10.352-10.84-12.647-67.822-70.996-116.16-121.39-145.02-151.22-42.188-43.701-91.455-34.033-131.2 4.199-31.103 29.932-55.224 55.469-85.107 88.623-7.178 7.959-15.82 13.135-26.025 15.576l-0.732-780.81c0-0.732 0.635-1.367 1.367-1.367h1037.8c1.172 0 2.246 0.684 2.734 1.758 0.489 1.124 0.782 2.443 0.831 3.956m-609.52 690.87 460.45-2.832c2.832 0 4.395-3.271 2.588-5.469-18.945-22.851-46.436-32.08-73.535-36.084-1.611-0.244-2.881-1.416-3.272-2.978-8.154-34.912-22.217-64.307-55.029-79.639-37.842-17.725-86.475-5.274-108.1 32.129-3.223 5.518-5.323 9.033-6.25 10.547-0.928 1.465-2.539 2.295-4.248 2.246-0.049 0-4.053-1.074-12.109-3.174-33.74-8.838-53.711 10.059-72.754 34.863-1.123 1.514-3.223 1.855-4.834 0.83-26.562-17.041-56.201-15.82-74.707 10.205-2.246 3.174-4.297 5.957-6.201 8.252-1.367 1.709-3.32 2.881-5.469 3.369-14.844 3.321-27.783 10.84-38.769 22.607-1.857 1.954-0.441 5.128 2.245 5.128z" fill="#fff"/> <path d="m2604.4 518.24 0.391 1163.8c0.146 1.514-0.83 3.223-2.832 5.078l-2.637-98.926 1.709-1069.4c2.197-1.22 3.32-1.415 3.369-0.488z" fill="#8E9CC0"/> <path d="m4180.2 888.79c-3.516-13.477-7.422-27.295-8.203-40.771-1.123-18.311-2.49-38.232-4.15-59.766-0.098-1.123-0.292-2.295-0.586-3.418l-19.775-77.783c-0.196-0.83-0.831-1.514-1.612-1.904l-1.367-0.683c-0.489-0.244-1.075 0.244-0.928 0.781 16.651 65.185 24.658 131.45 23.975 198.78-0.049 5.029-2.295 9.326-6.738 12.988l-17.529-14.697c-0.977-0.781-1.807-1.807-2.393-2.93-8.447-16.406-11.426-33.496-8.984-51.27 2.49-17.676 3.711-29.102 3.662-34.229 0-2.393-0.488-4.785-1.416-6.983-9.863-22.9-17.871-45.849-23.975-68.799-4.59-17.188-4.15-37.5-5.517-49.072-0.488-4.394-1.465-8.691-2.93-12.842-3.467-9.814-6.152-18.213-8.056-25.293-6.055-22.754-8.887-58.936 5.127-77.978 3.174-4.346 6.836-6.738 10.938-7.178 30.42-3.223 47.852 74.121 53.223 97.412 1.123 4.834 5.811 14.502 14.111 28.955 17.432 30.371 24.561 56.055 22.266 93.799-2.199 37.257-8.596 71.534-19.143 102.88z" fill="#72769A"/> <path d="m4180.2 888.79c-3.467 11.523-5.078 22.754-4.736 33.692-2.1 2.441-3.809 3.369-5.127 2.832-3.369-1.953-6.543-4.737-9.521-8.301 4.443-3.662 6.689-7.959 6.738-12.988 0.683-67.334-7.324-133.59-23.975-198.78-0.146-0.537 0.439-1.025 0.928-0.781l1.367 0.683c0.781 0.391 1.416 1.074 1.612 1.904l19.775 77.783c0.293 1.123 0.488 2.295 0.586 3.418 1.661 21.533 3.027 41.455 4.15 59.766 0.781 13.476 4.688 27.294 8.203 40.771z" fill="#52577F"/> <path d="m4131.9 947.19c-17.725-46.094-31.592-78.174-41.602-96.289-16.65-30.078-32.813-60.693-48.584-91.895-1.905-3.76-3.956-5.762-6.153-6.104-2.929-0.439-4.932 2.881-3.223 5.273 29.98 42.236 50.977 89.356 72.705 138.67 7.959 18.018 13.916 36.817 17.92 56.396-21.68-4.736-29.492-21.875-36.328-40.82-1.709-4.785-4.394-9.131-7.91-12.842-18.018-18.994-36.181-35.889-37.988-64.355-0.781-12.793-2.734-20.703-9.912-30.029-14.844-19.336-29.931-42.725-25.537-66.553 1.514-8.203 5.371-13.525 11.474-15.967 23.682-9.472 49.316 26.221 58.984 45.02 17.237 33.642 31.152 61.474 41.748 83.545 10.84 22.656 17.236 50.537 19.141 83.643 0.148 2.686-1.414 6.788-4.735 12.305z" fill="#72769A"/> <path d="m4215.5 951.93-0.538-17.578c-0.049-2.002 0.196-4.004 0.732-5.957 12.989-46.143 32.861-89.6 59.668-130.37 1.123-1.709 0.439-4.053-1.416-4.883l-0.195-0.098c-2.051-0.928-4.443-0.098-5.567 1.855-25.732 45.947-46.337 92.529-61.816 139.8-1.709 5.273-2.49 12.94-2.246 22.949-11.768-5.176-16.992-15.967-15.625-32.422 2.49-29.931 11.768-59.521 27.881-88.769 7.324-13.33 69.482-132.42 92.725-77.588 9.424 22.315-5.225 58.545-17.334 78.565-11.328 18.701-21.875 41.358-31.592 67.969-1.807 5.029-7.471 13.037-16.894 24.072-0.245 0.342-0.586 0.635-0.928 0.928l-26.855 21.533z" fill="#72769A"/> <path d="m4131.9 947.19 11.523 43.897-5.126-1.416-15.333-36.426c-4.004-19.58-9.96-38.379-17.92-56.396-21.728-49.316-42.725-96.436-72.705-138.67-1.709-2.393 0.293-5.713 3.223-5.273 2.197 0.342 4.248 2.344 6.153 6.104 15.771 31.201 31.933 61.816 48.584 91.895 10.01 18.113 23.877 50.193 41.601 96.287z" fill="#52577F"/> <path d="m3922.2 1158.7c-3.858-0.439-8.985 0.196-15.283 1.953-4.297 1.221-6.592 0.342-6.934-2.539 33.057-30.322 54.736-79.98 59.619-122.12 9.473-81.689-15.136-149.12-73.876-202.39-104.74-95.02-268.8-70.899-344.68 49.902-54.98 87.451-45.313 198.49 23.828 275.39-6.201 1.807-12.989 1.758-20.361-0.147-84.375-100.73-69.092-251.22 27.441-336.96 95.899-85.205 241.02-81.983 333.54 7.226 33.789 32.617 58.35 80.029 68.359 127.1 15.429 72.412-5.42 144.97-51.66 202.59z" fill="#34344C"/> <path d="m3900 1158.1-253.37 0.684c-1.611 0-3.174-0.635-4.345-1.807-3.174-3.223-6.104-3.321-8.74-0.244-0.928 1.074-2.246 1.66-3.662 1.709l-64.99 0.44c-69.141-76.904-78.809-187.94-23.828-275.39 75.879-120.8 239.94-144.92 344.68-49.902 58.74 53.271 83.349 120.7 73.876 202.39-4.884 42.138-26.564 91.797-59.62 122.12m-162.77-360.99c-0.026-1.801-1.442-3.217-3.228-3.217l-0.293 1e-3c-1.779-1e-3 -3.244 1.464-3.217 3.228l0.045 25.488c0.026 1.801 1.442 3.217 3.228 3.217l0.293-1e-3c1.779 1e-3 3.243-1.464 3.217-3.228l-0.045-25.488m-106.34 29.337c-0.91-1.548-2.912-2.036-4.424-1.095l-0.251 0.151c-1.509 0.909-1.996 2.911-1.095 4.424l12.056 19.985c0.91 1.548 2.912 2.036 4.424 1.094l0.251-0.151c1.509-0.909 1.997-2.911 1.095-4.424l-12.056-19.984m210.47 3.679c0.927-1.467 0.487-3.47-1.025-4.37l-0.249-0.154c-1.51-0.948-3.464-0.459-4.37 1.025l-13.792 22.243c-0.927 1.468-0.487 3.47 1.025 4.37l0.249 0.155c1.51 0.947 3.463 0.459 4.37-1.025l13.792-22.244m-12.94 45.554c-3.564 1.172-6.445 3.125-8.643 5.908-23.34 29.248-47.314 60.596-71.972 93.945-1.807 2.441-5.176 6.25-10.058 11.474-1.905 2.002-4.981 2.246-7.178 0.586l-82.91-62.695c-0.488-0.391-1.171-0.293-1.563 0.195l-0.83 1.172c-1.123 1.464-0.879 3.516 0.537 4.736l74.951 61.914c1.318 1.123 2.002 2.832 1.807 4.541-3.076 25.781 32.959 18.311 22.51-2.393-0.879-1.709-0.684-3.857 0.488-5.42l84.473-111.67c0.878-1.121-0.245-2.732-1.612-2.293m-275.93 22.316c-1.124 1.756 3.856 7.029 11.174 11.699 7.331 4.705 14.167 7.049 15.288 5.289 1.125-1.756-3.856-7.029-11.174-11.699-7.33-4.705-14.166-7.048-15.288-5.289m362.43-0.302c-1.106-1.751-7.601 0.3-14.514 4.575-6.905 4.269-11.641 9.201-10.551 10.966 1.107 1.751 7.601-0.3 14.514-4.575 6.905-4.269 11.641-9.201 10.551-10.966m28.777 103.06c0-2.03-1.661-3.738-3.705-3.718l-23.828-0.042c-2.058 0.021-3.718 1.632-3.717 3.704l-1e-3 0.391c0 2.029 1.661 3.738 3.705 3.717l23.828 0.042c2.058-0.021 3.718-1.632 3.717-3.704l1e-3 -0.39m-389.07 1.954c0.051-1.883-1.414-3.397-3.286-3.45l-23.528-0.575c-1.847-0.055-3.409 1.41-3.451 3.286l-5e-3 0.195c-0.051 1.883 1.414 3.397 3.286 3.45l23.528 0.575c1.846 0.055 3.409-1.41 3.451-3.286l5e-3 -0.195m24.632 86.616c-0.948-1.683-7.833 0.416-15.298 4.741-7.476 4.318-12.749 9.151-11.793 10.837 0.947 1.683 7.833-0.416 15.297-4.741 7.477-4.317 12.75-9.151 11.794-10.837m334.06 16.885c1.027-1.722 0.49-3.968-1.261-5.023l-20.614-12.337c-1.757-1.062-4.003-0.476-5.023 1.262l-0.151 0.252c-1.026 1.722-0.489 3.968 1.262 5.023l20.614 12.337c1.756 1.062 4.002 0.476 5.023-1.262l0.15-0.252z" fill="#F6EEE6"/> <path d="m3737.3 822.62c0.026 1.764-1.439 3.228-3.217 3.228l-0.293 1e-3c-1.786 0-3.202-1.416-3.228-3.217l-0.045-25.488c-0.026-1.764 1.439-3.228 3.217-3.228l0.293-1e-3c1.786 0 3.202 1.416 3.228 3.217l0.045 25.488z" fill="#1B1E31"/> <path d="m4215.5 951.93c-7.959 11.865-11.914 24.804-11.768 38.867-2.344 1.611-4.443 0.83-6.25-2.344l6.641-30.81c-0.244-10.01 0.537-17.676 2.246-22.949 15.479-47.266 36.084-93.848 61.816-139.8 1.124-1.953 3.516-2.783 5.567-1.855l0.195 0.098c1.855 0.83 2.539 3.174 1.416 4.883-26.807 40.771-46.679 84.229-59.668 130.37-0.537 1.953-0.781 3.955-0.732 5.957l0.537 17.577z" fill="#52577F"/> <path d="m3642.9 846.46c0.902 1.513 0.414 3.515-1.095 4.424l-0.251 0.151c-1.512 0.942-3.514 0.454-4.424-1.094l-12.056-19.985c-0.901-1.513-0.414-3.515 1.095-4.424l0.251-0.151c1.512-0.942 3.514-0.454 4.424 1.095l12.056 19.984z" fill="#1B1E31"/> <path d="m3827.5 852.4c-0.907 1.484-2.86 1.973-4.37 1.025l-0.249-0.155c-1.512-0.9-1.952-2.902-1.025-4.37l13.792-22.243c0.907-1.484 2.86-1.973 4.37-1.025l0.249 0.154c1.512 0.9 1.952 2.902 1.025 4.37l-13.792 22.244z" fill="#1B1E31"/> <path d="m4219.6 989.72c-3.369 3.027-6.055 3.418-8.056 1.221l22.949-31.738c4.98 3.174 9.521 3.223 12.744-2.344 11.866-20.313 31.738-27.735 47.51-41.504 10.889-9.522 22.803-19.043 35.645-28.467 0.245-0.195 0.928-1.074 2.002-2.637 0.683-0.977 0.537-2.295-0.293-3.076-0.878-0.83-2.148-0.928-3.125-0.244l-83.984 60.889c5.225-13.818 13.818-26.367 25.879-37.646 15.235-14.258 70.752-55.762 90.137-45.41 4.443 2.393 6.787 7.471 5.712 12.403-6.445 29.15-33.936 40.283-54.785 59.521-24.805 22.852-34.326 34.229-70.215 34.473-1.953 0.049-3.857 0.977-5.078 2.539l-17.042 22.02z" fill="#72769A"/> <path d="m3828.4 875.71c1.367-0.44 2.49 1.172 1.612 2.295l-84.473 111.67c-1.172 1.563-1.367 3.711-0.488 5.42 10.449 20.703-25.586 28.174-22.51 2.393 0.196-1.709-0.489-3.418-1.807-4.541l-74.951-61.914c-1.416-1.221-1.66-3.272-0.537-4.736l0.83-1.172c0.391-0.488 1.074-0.586 1.563-0.195l82.91 62.695c2.197 1.66 5.273 1.416 7.178-0.586 4.883-5.224 8.251-9.033 10.058-11.474 24.658-33.349 48.633-64.697 71.972-93.945 2.198-2.785 5.078-4.738 8.643-5.91z" fill="#1B1E31"/> <path d="m4234.5 959.2 10.498-17.383 83.984-60.889c0.977-0.683 2.247-0.586 3.125 0.244 0.831 0.781 0.977 2.099 0.293 3.076-1.075 1.563-1.758 2.442-2.002 2.637-12.842 9.424-24.755 18.946-35.645 28.467-15.771 13.769-35.644 21.191-47.51 41.504-3.221 5.567-7.762 5.518-12.743 2.344z" fill="#52577F"/> <path d="m1409.3 960.03c2.002 1.465 0.976 4.688-1.514 4.688h-277.2c-3.467 0-4.541-4.639-1.465-6.201 11.572-5.713 27.734-13.672 48.486-23.779 7.91-3.857 18.848-5.908 32.813-6.152 1.904-0.049 3.76-0.537 5.371-1.416 10.498-5.81 22.168-9.521 35.107-11.035 2.344-0.293 4.492-1.367 6.104-3.076 9.961-10.547 17.48-16.65 22.51-18.311 28.467-9.277 50.488-2.197 66.162 21.192 3.369 5.029 5.859 12.891 9.18 18.506 1.27 2.1 3.369 3.564 5.762 4.053 18.212 3.758 34.423 10.935 48.681 21.531z" fill="#EBF2FA"/> <path d="m3552.5 898.02c1.122-1.76 7.958 0.584 15.289 5.289 7.317 4.67 12.298 9.943 11.174 11.699-1.121 1.76-7.957-0.584-15.288-5.289-7.318-4.669-12.299-9.943-11.175-11.699z" fill="#1B1E31"/> <path d="m3914.9 897.72c1.091 1.765-3.646 6.697-10.551 10.966-6.913 4.275-13.407 6.326-14.514 4.575-1.09-1.765 3.646-6.696 10.551-10.966 6.913-4.275 13.407-6.325 14.514-4.575z" fill="#1B1E31"/> <path d="m4197.5 988.45c1.807 3.174 3.906 3.955 6.25 2.344 1.27 2.002 3.857 2.051 7.813 0.147 2.001 2.197 4.687 1.807 8.056-1.221-0.488 2.197 0.195 3.271 2.002 3.174 19.971-0.977 39.991-1.855 60.059-2.588 6.787-0.244 12.792 4.297 14.404 10.937l0.048 0.244c1.416 5.908-2.832 11.67-8.935 12.012-7.667 0.439-11.768 2.002-12.305 4.687 0.098-1.611-0.293-2.93-1.123-4.004-0.684-0.928-1.905-1.367-3.613-1.318-66.846 0.733-133.69 0.537-200.54-0.635-1.904-0.049-3.369 0.928-4.297 2.832-2.295-2.246-6.25-3.125-11.865-2.685-4.541 0.39-8.447-3.223-8.447-7.764v-6.348c0-5.176 4.199-9.326 9.375-9.277 26.904 0.147 53.516 1.025 79.931 2.637 1.318 0.097 2.637-0.537 3.956-1.953l5.126 1.416c7.861 2.099 16.65 2.587 26.367 1.464 1.465-0.146 2.539-1.464 2.49-2.93l-1.904-64.307c1.318 0.537 3.027-0.391 5.127-2.832l5.419 67.334c0.098 1.513 1.074 2.832 2.49 3.369 6.888 2.736 11.575 1.173 14.114-4.735z" fill="#B4BEDC"/> <path d="m3943.7 1001.2c1e-3 2.072-1.66 3.684-3.717 3.704l-23.828-0.042c-2.044 0.021-3.704-1.688-3.705-3.717l1e-3 -0.391c-1e-3 -2.072 1.659-3.684 3.717-3.704l23.828 0.042c2.044-0.021 3.705 1.688 3.705 3.718l-1e-3 0.39z" fill="#34344C"/> <path d="m3554.6 1002.9c-0.042 1.876-1.605 3.341-3.451 3.286l-23.528-0.575c-1.872-0.053-3.337-1.567-3.286-3.45l5e-3 -0.195c0.042-1.876 1.604-3.341 3.451-3.286l23.528 0.575c1.872 0.053 3.337 1.567 3.286 3.45l-5e-3 0.195z" fill="#34344C"/> <path d="m4274.9 1018.2c1.417 46.24-1.953 97.852-26.563 138.52-0.342 0.586 0.049 1.318 0.732 1.318h178.96c1.758 0 3.174 1.416 3.174 3.174v43.701c0 1.563-1.27 2.833-2.832 2.833h-38.623c-1.855 0-3.37 1.513-3.37 3.418v41.309c0 2.051-1.66 3.711-3.662 3.711h-32.129c-2.1 0-3.76-1.66-3.76-3.76v-42.969c0-0.635-0.537-1.172-1.172-1.172h-933.1c-1.66 0-2.978 1.318-2.978 2.978v40.918c0 1.563-1.27 2.832-2.881 2.832h-33.496c-1.416 0-2.588-1.172-2.588-2.588v-40.43c0-1.953-1.612-3.516-3.564-3.516h-38.965c-1.562 0-2.832-1.269-2.832-2.881v-43.945c0-1.709 1.367-3.076 3.076-3.076l216.21 0.195c7.372 1.904 14.16 1.953 20.361 0.147l64.99-0.44c1.416-0.049 2.734-0.635 3.662-1.709 2.636-3.076 5.567-2.978 8.74 0.244 1.171 1.172 2.734 1.807 4.345 1.807l253.37-0.684c0.342 2.881 2.637 3.76 6.934 2.539 6.298-1.758 11.426-2.393 15.283-1.953l171.19-0.439c0.977 0 1.465-1.123 0.879-1.855-28.662-35.254-31.983-97.803-28.955-141.36 0.928-1.904 2.393-2.881 4.297-2.832 66.846 1.172 133.69 1.367 200.54 0.635 1.708-0.049 2.929 0.39 3.613 1.318 0.832 1.076 1.223 2.394 1.125 4.005z" fill="#52577F"/> <path d="m1991.5 1209.6c-2.686 0-4.102-3.174-2.246-5.127 10.986-11.768 23.926-19.287 38.769-22.607 2.148-0.488 4.102-1.66 5.469-3.369 1.905-2.295 3.955-5.078 6.201-8.252 18.506-26.025 48.145-27.246 74.707-10.205 1.611 1.025 3.711 0.684 4.834-0.83 19.043-24.804 39.013-43.701 72.754-34.863 8.057 2.1 12.061 3.174 12.109 3.174 1.709 0.049 3.321-0.781 4.248-2.246 0.927-1.514 3.027-5.029 6.25-10.547 21.631-37.403 70.264-49.853 108.1-32.129 32.812 15.332 46.875 44.726 55.029 79.639 0.391 1.563 1.66 2.734 3.272 2.978 27.099 4.004 54.59 13.233 73.535 36.084 1.806 2.198 0.244 5.469-2.588 5.469l-460.45 2.831z" fill="#EBF2FA"/> <path d="m3579.2 1089.4c0.957 1.686-4.317 6.52-11.793 10.837-7.465 4.325-14.35 6.424-15.297 4.741-0.956-1.686 4.316-6.52 11.793-10.837 7.464-4.325 14.349-6.424 15.297-4.741z" fill="#34344C"/> <path d="m3913.2 1106.5c-1.021 1.737-3.267 2.323-5.023 1.262l-20.614-12.337c-1.751-1.055-2.288-3.301-1.262-5.023l0.151-0.252c1.02-1.737 3.266-2.323 5.023-1.262l20.614 12.337c1.751 1.055 2.288 3.301 1.261 5.023l-0.15 0.252z" fill="#34344C"/> <path d="m1969 1363.9-68.994-3.711c-3.028-0.195-5.42 2.49-4.932 5.518l7.91 50.098c0.488 2.881-1.66 5.469-4.59 5.615-25.342 1.074-49.512-4.004-72.51-15.283-28.027-13.77-57.959-32.373-87.793-39.16-39.893-9.082-59.571 8.545-92.871 36.572-29.492 24.853-43.701 39.111-68.604 49.658-2.393 1.026-5.225 0.195-6.641-2.002l-10.889-17.041-0.146-138.96c10.205-2.441 18.848-7.617 26.025-15.576 29.883-33.154 54.004-58.691 85.107-88.623 39.746-38.232 89.014-47.9 131.2-4.199 28.857 29.834 77.198 80.225 145.02 151.22 2.246 2.295 5.859 6.543 10.84 12.647 3.615 4.442 7.57 8.836 11.867 13.231z" fill="#EBF2FA"/> <path d="m1232.6 1291.3h-450.49c-4.297 0-6.445-5.176-3.418-8.252l25-24.951c6.543-6.543 15.43-10.254 24.707-10.254h25.391c1.758 0 3.369-0.83 4.394-2.197 4.932-6.689 7.812-10.547 8.594-11.474 21.094-25.635 44.336-20.508 74.024-12.842 1.465 0.391 3.027-0.293 3.76-1.611 17.92-32.275 46.631-48.486 81.006-25.293 1.27 0.879 2.93 1.025 4.346 0.488 39.746-15.283 74.756-9.961 105.08 16.016 19.434 16.65 27.393 43.506 58.594 54.98 16.455 6.055 30.078 12.354 40.82 18.946 2.978 1.806 1.708 6.444-1.807 6.444z" fill="#EBF2FA"/> <path d="m1553.1 1320.4 0.586 62.207c-0.146 5.029-0.977 9.57-2.442 13.623-0.537 1.416-1.611 2.49-3.027 3.027l-109.52 41.357c6.836-12.744 13.379-22.266 19.678-28.564 20.41-20.312 40.136-41.26 59.228-62.842 10.351-11.719 22.167-21.338 35.498-28.808z" fill="#EBF2FA"/> <path d="m1969 1363.9 84.18 86.23c-162.3 202.88-340.53 435.84-479.64 612.99-3.125 3.955-8.252 9.18-15.381 15.771l0.146-250.68 0.781-394.04 10.889 17.041c1.416 2.197 4.248 3.027 6.641 2.002 24.903-10.547 39.111-24.805 68.604-49.658 33.301-28.027 52.979-45.654 92.871-36.572 29.834 6.787 59.765 25.39 87.793 39.16 22.998 11.279 47.168 16.358 72.51 15.283 2.93-0.146 5.078-2.734 4.59-5.615l-7.91-50.098c-0.488-3.027 1.904-5.713 4.932-5.518l68.993 3.713z" fill="#E1EAF9"/> <path d="m1553.7 1382.6 0.586 410.16-1.025 302.69c-13.135 10.205-22.07 18.799-26.709 25.781-32.763 48.682-67.139 93.701-103.17 134.96-1.025 1.172-0.879 2.929 0.244 4.004l43.799 39.941c2.002 1.807 4.98 2.051 7.227 0.488 22.559-15.527 48.584-21.045 78.027-16.553 0 49.073 0.537 98.584 1.611 148.58 0.098 4.15-0.488 13.916-1.758 29.199l-2.881-17.676c-0.244-1.27-1.709-1.855-2.734-1.074-2.881 2.246-5.322 4.932-7.276 8.008-8.935-19.922-20.117-38.624-33.545-56.153-10.205-13.33-15.479-28.076-15.771-44.14 0-0.879-0.684-1.612-1.514-1.709-0.879-0.098-1.709 0.488-1.904 1.318-7.227 28.32-3.516 56.006 11.181 83.057-4.932 0.537-6.445 4.395-4.492 11.572 0.83 3.125-1.367 6.25-4.59 6.543-10.742 0.928-17.676 1.465-20.752 1.514-17.529 0.293-75.928 0.293-175.24 0-10.986-0.049-34.57 0.049-70.801 0.293-126.46 0.928-333.94 1.172-622.36 0.635-16.162-0.049-41.016-1.904-61.67-0.83v-619.53c12.646 5.225 25.732 9.766 39.307 13.672 8.496 2.49 20.02 11.377 34.619 26.66 3.076 3.223 11.719 14.502 25.928 33.838 12.158 16.504 45.996 26.563 74.756 37.989 33.398 13.232 48.34 44.531 62.695 72.51 0.586 1.123 1.513 2.051 2.637 2.539l61.572 28.808c4.541 2.1 9.961 0.684 12.891-3.369 4.199-5.811 10.059-15.625 15.527-22.021 18.994-22.119 39.942-45.166 62.94-69.043 92.529-96.24 184.57-192.43 276.17-288.57 67.48-71.729 131.88-137.7 193.21-197.85 10.986-10.791 23.779-20.215 38.281-28.223l109.52-41.357c1.416-0.537 2.49-1.611 3.027-3.027 1.466-4.054 2.296-8.595 2.442-13.624z" fill="#E1EAF9"/> <path d="m1207.2 1666.7c-91.601 96.142-183.64 192.33-276.17 288.57-22.998 23.877-43.945 46.924-62.94 69.043-5.469 6.396-11.328 16.211-15.527 22.021-2.93 4.052-8.35 5.469-12.891 3.369l-61.572-28.808c-1.123-0.488-2.051-1.416-2.637-2.539-14.355-27.979-29.297-59.277-62.695-72.51-28.76-11.426-62.598-21.484-74.756-37.989-14.209-19.336-22.852-30.615-25.928-33.838-14.6-15.283-26.123-24.17-34.619-26.66-13.574-3.906-26.66-8.447-39.307-13.672l0.488-78.711c0.195 4.639 2.002 6.983 5.469 6.983 0.781 0 1.514-0.244 2.1-0.733 6.689-5.225 13.086-10.742 19.141-16.602 135.55-131.1 240.14-233.59 313.82-307.47 24.121-24.219 55.42-33.399 83.301-9.619 25.146 21.436 46.436 45.606 76.465 74.561 56.201 54.201 112.26 109.08 168.26 164.6z" fill="#EBF2FA"/> <path d="m2599.3 1588.2 2.637 98.926c-17.334 52.099-16.504 103.86 2.49 155.18-0.244 0.244-0.439 0.537-0.684 0.781-0.927-0.147-2.197 0.635-3.857 2.344l-0.195 283.98c-10.107-9.131-19.581-18.799-28.321-28.955-14.111-16.357-23.584-25.83-28.32-28.32-39.551-20.654-68.262 7.861-92.188 35.742-0.342 0.342-15.967 20.703-46.924 61.035-1.514 1.953-4.151 2.539-6.348 1.416-16.211-8.154-29.345-18.994-39.453-32.47-15.82-21.045-29.052-31.055-46.924-50.489-25.781-28.027-50.44-40.234-86.768-18.652-2.197 1.319-5.029 0.293-5.908-2.148-6.299-18.115-17.773-29.931-34.473-35.449-3.809-1.27-7.959-0.488-11.084 2.051-32.324 26.367-46.924 64.551-70.313 100.29-1.904 2.881-5.908 3.272-8.301 0.83-11.67-11.817-24.268-21.436-37.744-28.906-23.877-13.232-35.938-41.064-63.135-49.658-38.232-12.061-65.088 17.48-77.539 50.684-10.4 27.881-23.682 56.787-39.844 86.768-1.172 2.1-3.955 2.637-5.811 1.074-21.533-18.36-45.313-27.344-74.17-20.459-6.885 1.66-17.383 8.35-31.543 20.117-13.086 10.888-27.539 19.873-43.408 26.904-9.961 4.443-17.676 10.84-29.102 18.604-2.099 1.416-4.785 1.611-7.08 0.537-17.334-8.203-34.57-9.766-51.66-4.736-2.148 0.635-12.744 6.641-31.836 17.92-13.428 7.959-27.832 13.721-43.311 17.383v-191.6c7.129-6.592 12.256-11.816 15.381-15.771 139.11-177.15 317.33-410.11 479.64-612.99l180.18 184.77c1.465 1.562 4.004 1.318 5.225-0.439 21.338-31.543 44.971-61.182 70.996-88.868 1.074-1.172 2.734-1.66 4.297-1.318 20.898 4.834 42.188 2.246 63.916-7.861 2.637-1.221 5.811-0.244 7.227 2.295l21.436 37.109c1.513 2.637 5.225 2.783 6.982 0.342 9.863-13.77 18.847-29.15 32.422-36.377 7.227-3.858 17.676-7.08 31.299-9.766 30.42-5.908 51.66-8.496 63.769-7.666 1.221 0.098 2.344 0.683 3.174 1.611l55.178 64.206z" fill="#EBF2FA"/> <path d="m3321.2 2458.3c-7.715-57.08-19.385-112.3-35.009-165.77-9.277-31.739-22.217-61.817-38.037-90.723-24.756-45.166-61.572-74.707-110.55-88.672-31.836-9.082-67.92-15.821-108.25-20.264-5.322 1.172-11.621 0-18.994-3.516-38.135-18.213-55.859-133.2-60.107-174.17-0.439-4.297 1.514-8.447 5.078-10.84 24.268-16.162 36.426-39.453 36.475-69.922 0.049-19.434-8.789-46.094-32.666-43.848-1.856 0.195-3.662 0.781-5.322 1.66-13.916 7.617-21.094 19.141-21.533 34.521-0.098 3.711-2.832 6.885-6.494 7.519-92.578 15.918-206.88-21.582-256.84-104.49-0.781-1.318-2.783-1.123-3.272 0.342-2.734 7.91-4.541 16.845-5.371 26.855-5.225 62.842 9.668 126.02 29.541 183.06 13.427 38.428 39.697 88.965 74.609 113.43 20.068 14.111 41.211 14.258 63.33 0.537l3.174 27.1 1.465 16.699c0.195 2.246-1.221 4.297-3.369 4.932l-19.629 5.713c-31.299 7.226-68.213 15.381-96.191 30.273-5.762 3.076-11.572 5.664-17.432 7.861-9.033-38.965-4.932-65.82-0.977-101.03 4.59-40.918-5.078-77.881-29.004-110.94-27.539-37.988-47.998-68.799-61.377-92.383-18.994-51.318-19.824-103.08-2.49-155.18 2.002-1.855 2.979-3.565 2.832-5.078 4.443-5.615 8.594-11.279 12.5-16.992 13.525-19.727 30.909-34.961 52.148-45.752 1.856-0.928 3.516-2.246 4.883-3.808l22.998-26.807 3.565-2.246c20.85-13.135 39.599-27.539 67.09-33.154 23.486-4.736 47.705-13.867 71.582-16.358 110.3-11.523 187.3 60.889 204.54 165.87 12.5 75.732 20.215 148.92 96.192 189.55 18.896 10.107 47.363 22.558 64.453 35.4 29.053 21.729 46.094 51.855 51.172 90.332 7.227 54.492 7.568 94.727 46.191 127.73 24.609 20.996 53.76 36.865 72.363 66.553 31.152 49.902 36.28 102.2 15.381 156.88-13.088 34.279-35.988 63.967-68.654 89.113z" fill="#1B1E31"/> <path d="m3029.3 2092.9c-16.26 20.459-35.01 37.158-56.201 50.049-42.92 26.123-141.6 48.926-162.11-20.459-0.488-1.612-0.586-3.271-0.293-4.932 0.83-4.98 0.39-8.008-1.319-9.082l19.629-5.713c2.148-0.635 3.565-2.686 3.369-4.932l-1.465-16.699c14.063-0.244 27.685-6.445 40.918-18.604 26.123-23.926 46.045-52.295 59.717-85.108 0.684-1.562-1.22-2.978-2.539-1.904-2.685 2.246-5.273 4.98-7.665 8.203-24.366 32.568-55.567 56.006-93.604 70.312-22.119 13.721-43.261 13.574-63.33-0.537-34.912-24.463-61.182-75-74.609-113.43-19.873-57.031-34.766-120.22-29.541-183.06 0.83-10.01 2.636-18.945 5.371-26.855 0.489-1.465 2.491-1.66 3.272-0.342 49.951 82.91 164.26 120.41 256.84 104.49 3.662-0.635 6.396-3.808 6.494-7.519 0.439-15.381 7.617-26.904 21.533-34.521 1.66-0.879 3.467-1.465 5.322-1.66 23.877-2.246 32.715 24.414 32.666 43.848-0.049 30.469-12.207 53.76-36.475 69.922-3.564 2.393-5.517 6.543-5.078 10.84 4.248 40.967 21.973 155.96 60.107 174.17 7.373 3.516 13.672 4.687 18.994 3.516m-85.156-259.18 6.152 38.77c1.123 7.227 11.133 8.301 13.77 1.465 5.029-13.037 7.178-28.467 6.543-46.24-0.244-6.494-6.152-11.328-12.549-10.303l-2.294 0.342c-7.618 1.22-12.794 8.349-11.622 15.966z" fill="#F4967D"/> <path d="m1558.3 1828.2-0.146 250.68v191.6l-1.123 179.34-0.049 11.426c-3.272-2.002-4.248 2.441-2.979 13.281l-1.465-12.695c1.27-15.283 1.856-25.049 1.758-29.199-1.074-50-1.611-99.512-1.611-148.58l0.586-188.62 1.025-302.69 1.66 43.213c0 0.391 0.293 0.732 0.684 0.732 0.391 0.049 0.781-0.195 0.879-0.586 0.635-2.197 0.879-4.834 0.781-7.91z" fill="#72769A"/> <path d="m2944.2 1833.7c-1.172-7.617 4.004-14.746 11.622-15.967l2.294-0.342c6.397-1.026 12.305 3.808 12.549 10.303 0.635 17.774-1.514 33.203-6.543 46.24-2.637 6.836-12.647 5.762-13.77-1.465l-6.152-38.769z" fill="#F26257"/> <path d="m2603.7 1843 0.537 5.81c-1.611 2.735-3.076 1.563-4.395-3.467 1.661-1.708 2.931-2.49 3.858-2.343z" fill="#52577F"/> <path d="m2604.4 1842.3c13.379 23.584 33.838 54.395 61.377 92.383 23.926 33.057 33.594 70.019 29.004 110.94-3.955 35.205-8.056 62.061 0.977 101.03l-14.502 8.74c-3.223 1.953-6.103 4.444-8.496 7.373-18.75 22.949-33.154 56.006-45.41 82.471-8.74 18.799-13.916 39.551-15.625 62.354-0.244 3.076-4.297 3.906-5.762 1.221l-1.563-2.93-0.146-456.98-0.537-5.81c0.244-0.246 0.439-0.539 0.683-0.783z" fill="#F6EEE6"/> <path d="m2599.9 1845.4c1.318 5.029 2.783 6.201 4.395 3.467l0.146 456.98c0.489 7.178-0.684 12.158-3.467 14.941l-1.269-191.41 0.195-283.98z" fill="#797E82"/> <path d="m2830.9 2081.1-3.174-27.1c38.037-14.307 69.238-37.744 93.604-70.312 2.392-3.223 4.98-5.957 7.665-8.203 1.319-1.074 3.223 0.342 2.539 1.904-13.672 32.813-33.594 61.182-59.717 85.108-13.232 12.158-26.855 18.359-40.917 18.603z" fill="#F26257"/> <path d="m2599.7 2129.4 1.269 191.41-45.751 134.52c-26.612-4.443-51.758-2.002-75.391 7.324-10.4-32.08-20.117-64.746-29.199-98.047-6.592-24.121-21.875-28.272-46.289-28.174-348.39 1.025-553.42 1.123-615.04 0.391-14.307-0.147-22.949 5.762-25.976 17.773-0.342 1.514-0.293 3.125 0.146 4.638l27.392 88.184c-12.353 3.662-23.047 5.664-32.031 5.908-62.207 1.855-129.44 0.684-201.76-3.467l1.123-179.34c15.479-3.662 29.883-9.424 43.311-17.383 19.092-11.279 29.688-17.285 31.836-17.92 17.09-5.029 34.326-3.467 51.66 4.736 2.295 1.074 4.98 0.879 7.08-0.537 11.426-7.764 19.141-14.16 29.102-18.604 15.869-7.031 30.322-16.016 43.408-26.904 14.16-11.768 24.658-18.457 31.543-20.117 28.857-6.885 52.637 2.099 74.17 20.459 1.855 1.563 4.639 1.025 5.811-1.074 16.162-29.98 29.443-58.887 39.844-86.768 12.451-33.203 39.307-62.744 77.539-50.684 27.197 8.594 39.258 36.426 63.135 49.658 13.477 7.471 26.074 17.09 37.744 28.906 2.392 2.441 6.396 2.051 8.301-0.83 23.388-35.742 37.988-73.926 70.313-100.29 3.125-2.539 7.275-3.32 11.084-2.051 16.699 5.518 28.174 17.334 34.473 35.449 0.879 2.441 3.711 3.467 5.908 2.148 36.328-21.582 60.987-9.375 86.768 18.652 17.871 19.434 31.104 29.444 46.924 50.489 10.108 13.477 23.242 24.316 39.453 32.47 2.197 1.123 4.834 0.537 6.348-1.416 30.957-40.332 46.582-60.693 46.924-61.035 23.926-27.881 52.636-56.396 92.188-35.742 4.736 2.49 14.209 11.963 28.32 28.32 8.737 10.16 18.21 19.828 28.317 28.959z" fill="#E1EAF9"/> <path d="m1553.3 2095.4-0.586 188.62c-29.444-4.492-55.469 1.025-78.027 16.553-2.246 1.563-5.225 1.319-7.227-0.488l-43.799-39.941c-1.123-1.074-1.269-2.832-0.244-4.004 36.035-41.26 70.41-86.279 103.17-134.96 4.639-6.984 13.574-15.578 26.709-25.782z" fill="#EBF2FA"/> <path d="m3321.2 2458.3c2.881 7.373 4.297 15.039 4.2 23.096-2.979 11.279-2.247 24.902 2.294 40.869 7.666 53.076 8.252 104.88 8.057 182.57-0.098 25.635-2.393 51.026-6.934 76.221-4.151 22.949-12.793 44.873-30.713 58.935-7.373 4.834-13.672 7.227-18.848 7.178-78.76-0.586-157.47-0.488-236.23 0.244-27.393 0.244-55.419-1.025-84.13-3.906 7.958-8.35 10.546-16.26 7.763-23.828-0.537-1.514-1.953-2.49-3.515-2.49h-133.79c-2.1 0-3.711-1.806-3.467-3.857 3.613-33.642-0.293-65.478-11.67-95.459-0.39-1.074 0.293-2.246 1.416-2.441 135.25-20.948 231.93-36.475 289.99-46.582 27.148-4.736 48.145-5.859 63.037-3.467 26.758 4.346 51.026 14.6 72.803 30.762 0.928 0.684 2.198 0.342 2.686-0.683l0.586-1.221c0.39-0.781 0.146-1.758-0.586-2.295-33.252-23.583-70.068-34.326-110.45-32.324-1.514 0.097-2.832-0.928-3.125-2.393-18.945-98.73-34.033-191.26-45.215-277.64-0.098-0.781-0.781-1.318-1.563-1.172l-1.611 0.244c-0.928 0.147-1.514 0.977-1.416 1.904 12.842 94.336 27.783 186.96 44.824 277.88 0.342 1.66-0.83 3.271-2.49 3.515l-310.45 49.17c-1.612 0.244-2.93 1.465-3.32 3.076-0.586 2.637-0.098 5.957 1.464 10.01-27.246-0.39-45.996-2.099-56.25-5.176-21.973-6.592-43.994-12.842-66.113-18.847-0.928-0.244-1.66-0.684-2.246-1.27 0.83-4.394 1.025-7.763 0.586-10.059-5.127-26.905-13.818-54.443-26.172-82.568-10.889-24.756-17.773-52.49-20.557-83.301-2.88-31.787 6.201-70.654 15.479-100.73 9.472-30.713 22.412-66.943 38.818-108.79 0.342-0.928-0.342-1.905-1.319-1.905h-1.757c-0.537 0-1.075 0.342-1.27 0.879-15.625 38.086-29.443 77.246-41.504 117.48-17.432 58.203-19.434 104.83 0.293 157.76 15.43 41.308 29.053 71.68 34.18 109.96-1.562 0.537-3.222 1.123-4.883 0.586-13.916-4.688-25.146-5.957-33.691-3.858-28.857 7.178-55.664 24.219-80.419 51.172l-49.122-164.01 40.381-126.27 45.751-134.52c2.783-2.783 3.956-7.763 3.467-14.941l1.563 2.93c1.465 2.686 5.518 1.855 5.762-1.221 1.709-22.803 6.885-43.555 15.625-62.354 12.256-26.465 26.661-59.521 45.41-82.471 2.393-2.929 5.273-5.42 8.496-7.373l14.502-8.74c5.859-2.198 11.67-4.785 17.432-7.861 27.978-14.893 64.892-23.047 96.191-30.273 1.709 1.074 2.149 4.102 1.319 9.082-0.293 1.66-0.196 3.32 0.293 4.932 20.508 69.385 119.19 46.582 162.11 20.459 21.192-12.891 39.941-29.59 56.201-50.049 40.332 4.443 76.416 11.181 108.25 20.264 48.975 13.965 85.791 43.506 110.55 88.672 15.821 28.906 28.76 58.984 38.037 90.723 15.625 53.467 27.295 108.69 35.01 165.77z" fill="#FFDFB6"/> <path d="m4144.2 2829.5c-0.439 0.927-0.635 1.904-0.684 2.832 0.342-11.963 0.098-23.926-0.83-35.938-6.494-85.937-7.959-173-4.492-261.23 0.44-11.67 4.492-77.148 12.061-196.53 0.439-6.543 0.537-21.631 0.391-45.313 0-0.342-0.293-0.635-0.684-0.684h-0.049c-0.342-0.049-0.684 0.244-0.732 0.635-10.01 104.93-16.211 205.47-18.604 301.71-1.807 72.559 0.293 149.95 6.201 232.18-27.295-31.689-46.973-67.139-58.984-106.3-14.6-47.656-25.781-97.9-33.545-150.68-8.496-57.812-6.201-106.4 10.303-158.89 6.836-21.777 13.037-41.552 18.652-59.375 0.928-2.978 3.662-18.604 8.105-46.826 1.514-9.229 2.539-25.049 3.125-47.461 1.025-36.816 3.808-69.189 8.349-97.07 3.711-22.9 12.744-41.406 27.1-55.615 23.682-23.389 52.002-3.955 65.186 21.045 34.229 64.746 32.764 129.35 26.123 201.17-3.369 36.475-1.27 71.875 4.932 104.4 5.42 28.516 9.375 52.1 11.865 70.703 6.494 48.682 2.588 96.729-11.621 144.14-17.871 59.57-42.773 113.62-70.361 170.22-1.66 3.417-2.246 7.714-1.807 12.89m6.96-695.53c-0.026-0.907-0.759-1.59-1.639-1.583l-0.195 4e-3c-0.877 0.038-1.61 0.771-1.583 1.639l1.998 114.44c0.026 0.906 0.759 1.59 1.639 1.583l0.195-3e-3c0.877-0.038 1.61-0.771 1.583-1.639l-1.998-114.44z" fill="#F26257"/> <path d="m4153.1 2248.4c0.027 0.869-0.706 1.601-1.583 1.639l-0.195 3e-3c-0.88 8e-3 -1.613-0.676-1.639-1.583l-1.998-114.44c-0.027-0.869 0.706-1.601 1.583-1.639l0.195-4e-3c0.88-7e-3 1.613 0.676 1.639 1.583l1.998 114.44z" fill="#34344C"/> <path d="m4144.2 2829.5 2.051 46.875c-2.197-6.64-3.125-3.076-2.783 10.645l-6.689-59.864c-5.908-82.226-8.008-159.62-6.201-232.18 2.393-96.24 8.594-196.78 18.604-301.71 0.049-0.39 0.391-0.683 0.732-0.635h0.049c0.391 0.049 0.684 0.342 0.684 0.684 0.146 23.682 0.048 38.77-0.391 45.313-7.568 119.38-11.621 184.86-12.061 196.53-3.467 88.232-2.002 175.29 4.492 261.23 0.928 12.012 1.172 23.975 0.83 35.938 0.048-0.928 0.244-1.905 0.683-2.832z" fill="#34344C"/> <path d="m2686.2 2698.9c-1.514-0.342-2.588-0.781-3.223-1.269-5.127-38.281-18.75-68.653-34.18-109.96-19.727-52.93-17.725-99.561-0.293-157.76 12.061-40.234 25.879-79.394 41.504-117.48 0.195-0.537 0.733-0.879 1.27-0.879h1.757c0.977 0 1.66 0.977 1.319 1.905-16.407 41.846-29.346 78.076-38.818 108.79-9.278 30.078-18.36 68.946-15.479 100.73 2.784 30.81 9.668 58.545 20.557 83.301 12.354 28.125 21.045 55.664 26.172 82.568 0.44 2.294 0.245 5.663-0.586 10.057z" fill="#1B1E31"/> <path d="m2479.8 2462.6 35.01 118.94 49.122 164.01 17.871 61.865c0.781 6.299 2.734 9.521 5.859 9.668 13.916 0.586 26.465 0.439 37.744-0.439l54.053 0.049 136.87 0.879c1.562 0 2.978-0.928 3.515-2.393 0.83-2.1 1.27-5.03 1.367-8.789 2.686-28.516-0.781-55.908-10.449-82.178-1.563-4.052-2.05-7.373-1.464-10.01 0.39-1.611 1.708-2.832 3.32-3.076l310.45-49.17c1.66-0.244 2.832-1.855 2.49-3.515-17.041-90.918-31.983-183.54-44.824-277.88-0.098-0.928 0.488-1.758 1.416-1.904l1.611-0.244c0.781-0.146 1.465 0.391 1.563 1.172 11.181 86.377 26.269 178.91 45.215 277.64 0.293 1.465 1.611 2.49 3.125 2.393 40.381-2.002 77.197 8.74 110.45 32.324 0.732 0.537 0.976 1.514 0.586 2.295l-0.586 1.221c-0.488 1.025-1.758 1.367-2.686 0.683-21.777-16.162-46.045-26.416-72.803-30.762-14.892-2.392-35.889-1.27-63.037 3.467-58.057 10.108-154.74 25.635-289.99 46.582-1.123 0.195-1.806 1.367-1.416 2.441 11.377 29.981 15.283 61.817 11.67 95.459-0.244 2.051 1.367 3.857 3.467 3.857h133.79c1.562 0 2.978 0.977 3.515 2.49 2.783 7.568 0.195 15.479-7.763 23.828-12.305 2.881-20.069 4.297-23.292 4.248-59.814-1.221-119.63-1.709-179.44-1.465-272.9 0.928-545.85 1.318-818.75 1.074-1.172 0-3.711-0.635-7.617-1.953-11.426-3.857-18.653-10.547-21.68-20.02-28.272-88.33-67.383-214.31-117.24-378.03l-27.392-88.184c-0.44-1.514-0.488-3.125-0.146-4.638 3.027-12.012 11.67-17.92 25.976-17.773 61.621 0.732 266.65 0.635 615.04-0.391 24.414-0.098 39.697 4.053 46.289 28.174 9.08 33.302 18.797 65.968 29.198 98.048m-336.98 101.15c-12.578 10.519-12.626 31.173-0.099 46.163 12.521 14.99 32.883 18.604 45.452 8.078 12.578-10.519 12.626-31.173 0.099-46.164-12.522-14.99-32.883-18.603-45.452-8.077z" fill="#1B1E31"/> <path d="m1539.7 2451.1c9.912 29.101 10.01 58.3 0.293 87.646-11.719 35.254-29.052 68.652-19.873 108.45 0.391 1.563-1.66 2.539-2.685 1.27-23.486-29.98-13.965-66.358-5.176-104.64 8.984-39.307 4.297-76.123-14.111-110.35-14.697-27.051-18.408-54.737-11.181-83.057 0.195-0.83 1.025-1.416 1.904-1.318 0.83 0.097 1.514 0.83 1.514 1.709 0.293 16.064 5.566 30.811 15.771 44.14 13.427 17.53 24.609 36.232 33.544 56.154z" fill="#F26257"/> <path d="m4290.9 3004.2c3.466-18.994 6.835-36.328 10.205-52.051 11.768-54.98 23.828-101.95 36.182-140.87 29.541-93.164 62.451-177 98.779-251.56 25.537-52.393 43.164-87.842 52.881-106.25 0.83-1.563-0.098-3.516-1.855-3.858l-0.635-0.097c-2.001-0.391-4.004 0.586-4.98 2.392-71.68 137.4-131.54 279.54-171.09 429.88-4.688 17.773-9.522 39.404-14.551 64.942-4.296 21.875-8.74 43.603-13.281 65.234 0.195-7.568-1.367-15.723-4.736-24.561-5.224-13.818-8.154-21.729-8.691-23.682-33.008-114.6-10.791-238.18 38.33-345.7 26.221-57.373 56.055-108.74 89.502-154.1 21.68-29.443 92.725-107.57 122.8-44.971 4.443 9.277 7.129 18.994 8.008 29.199 5.322 62.744-8.643 122.31-41.895 178.76-6.104 10.303-18.603 29.931-37.548 58.838-20.801 31.689-26.661 74.951-30.469 120.12-4.688 55.127-27.002 106.3-66.943 153.61-16.605 19.68-36.625 34.572-60.013 44.729z" fill="#F26257"/> <path d="m1498.1 2433.5c18.408 34.228 23.096 71.044 14.111 110.35-8.789 38.281-18.311 74.658 5.176 104.64 1.025 1.27 3.076 0.293 2.685-1.27-9.179-39.795 8.155-73.193 19.873-108.45 9.717-29.346 9.619-58.545-0.293-87.646 1.953-3.076 4.395-5.762 7.276-8.008 1.026-0.781 2.49-0.195 2.734 1.074l2.881 17.676 1.465 12.695c-1.563 28.613-1.953 57.471-1.172 86.573 0.342 12.402 0.244 28.467-0.293 48.242-0.439 16.064-0.098 32.129 0.977 48.193 0.146 2.686-1.855 4.102-6.104 4.15l-131.93-2.148c-1.855-0.049-3.418 1.465-3.369 3.321 0.342 22.802 1.611 45.801 3.76 69.043 2.881 31.446 13.184 60.205 30.81 86.328l-91.894 0.293c-3.271 0-4.346 4.345-1.465 5.859l42.725 22.168-664.84 0.928c-0.879 0-1.611 0.684-1.611 1.562v83.154c0 1.758 1.416 3.174 3.174 3.174h480.13c0.391 0 0.83 0.098 1.172 0.342 0.928 0.537 2.002 1.074 3.223 1.562l-28.711 147.36c-0.44 2.295-2.49 4.004-4.834 3.955l-151.61-0.488-489.89-1.026c-1.953 0-3.565-1.562-3.565-3.515l-0.488-630.37c20.654-1.074 45.508 0.781 61.67 0.83 288.43 0.537 495.9 0.293 622.36-0.635 36.23-0.244 59.814-0.342 70.801-0.293 99.317 0.293 157.72 0.293 175.24 0 3.076-0.049 10.01-0.586 20.752-1.514 3.223-0.293 5.42-3.418 4.59-6.543-1.953-7.179-0.439-11.036 4.492-11.573m-15.478 210.35c-1.416-6.152-3.369-13.037-5.81-20.703-11.67-36.963-1.807-67.285 9.766-108.64 0.147-0.537-0.146-1.123-0.684-1.367h-0.049c-0.635-0.244-1.367 0.098-1.562 0.732-5.957 16.064-20.849 41.602-23.73 63.233-3.467 25.586 2.978 48.291 19.336 68.115 1.073 1.269 3.123 0.244 2.733-1.368z" fill="#fff"/> <path d="m1790.8 2447.4c49.854 163.72 88.965 289.7 117.24 378.03 3.027 9.473 10.254 16.162 21.68 20.02-0.635 2.149-1.856 3.027-3.662 2.686-11.377-2.1-24.414-3.125-39.112-3.028-75.488 0.342-151.76 0.196-228.76-0.439l36.816-21.386c2.783-1.611 1.611-5.908-1.66-5.908l-104.69 0.586c6.689-13.916 14.404-23.486 23.096-28.613 24.658-0.83 44.629-8.789 59.912-23.828 17.627-17.383 23.535-45.508 9.717-66.602-9.717-14.795-25.977-20.898-48.779-18.311-3.223-2.881-4.004-7.471-2.344-13.818 0.83-3.174-1.611-6.25-4.883-6.153l-66.26 1.319c-4.297-24.463-4.541-43.945-0.683-58.448 0.683-2.685 3.174-8.252 7.52-16.601 1.66-3.223 2.685-6.738 2.93-10.4 0.977-12.256 3.369-28.418-4.59-35.938-2.637-2.49-4.15-5.469-4.541-8.936-2.686-23.193-3.613-46.631-2.783-70.361l0.049-11.426c72.315 4.151 139.55 5.323 201.76 3.467 8.983-0.244 19.676-2.246 32.03-5.909z" fill="#fff"/> <path d="m4290.9 3004.2c-25.342 124.66-44.971 243.41-58.79 356.2-3.955 32.276-12.793 108.64-26.514 229.05-0.146 1.221 0.781 2.246 2.002 2.246h1.367c0.391 0 0.684-0.244 0.782-0.586 27.88-99.463 70.166-192.33 126.86-278.71 37.06-56.445 77.246-111.72 123.14-161.57 23.193-25.244 37.061-40.186 41.504-44.824 13.232-13.721 36.523-35.84 69.922-66.406 10.4-9.521 26.074-20.068 34.18-25.391 0.586-0.39 1.417-0.293 1.904 0.293l0.586 0.635c0.586 0.683 0.439 1.709-0.293 2.295-21.68 16.65-40.967 33.447-57.812 50.391-16.016 16.064-31.299 30.908-45.85 44.433-18.311 16.992-33.204 32.227-44.678 45.703-28.32 33.252-55.566 67.773-81.787 103.47-5.419 7.373-10.596 15.186-15.576 23.34-4.785 7.861-9.668 15.869-14.697 24.023-1.123 1.465-2.539 3.467-4.248 6.055-63.818 96.973-110.06 202-138.67 315.04-1.905 1.025-4.102 0.684-6.69-0.928 17.432-207.03 45.752-412.7 85.01-616.99 4.541-21.631 8.985-43.359 13.281-65.234 5.029-25.538 9.863-47.168 14.551-64.942 39.55-150.34 99.414-292.48 171.09-429.88 0.977-1.806 2.979-2.783 4.98-2.392l0.635 0.097c1.758 0.342 2.686 2.295 1.855 3.858-9.717 18.408-27.344 53.857-52.881 106.25-36.328 74.561-69.238 158.4-98.779 251.56-12.354 38.916-24.414 85.889-36.182 140.87-3.367 15.722-6.737 33.055-10.203 52.05z" fill="#34344C"/> <path d="m2555.2 2455.3-40.381 126.27-35.01-118.94c23.633-9.327 48.78-11.768 75.391-7.325z" fill="#fff"/> <path d="m1557 2461.3c-0.83 23.73 0.098 47.168 2.783 70.361 0.391 3.467 1.904 6.445 4.541 8.936 7.959 7.52 5.566 23.682 4.59 35.938-0.244 3.662-1.27 7.178-2.93 10.4-4.346 8.349-6.836 13.916-7.52 16.601-3.858 14.502-3.613 33.985 0.683 58.448-1.66 0.928-5.566 0.83-11.719-0.244 4.248-0.049 6.25-1.465 6.104-4.15-1.074-16.064-1.416-32.129-0.977-48.193 0.537-19.775 0.635-35.84 0.293-48.242-0.781-29.102-0.391-57.959 1.172-86.573-1.268-10.841-0.292-15.284 2.98-13.282z" fill="#F4967D"/> <path d="m3325.4 2481.4c28.955 3.564 55.761 10.791 80.469 21.728 62.598 27.735 83.106 78.613 90.82 143.26 7.471 62.549 7.862 128.66 1.172 198.34-0.146 1.562 1.074 2.881 2.637 2.881l412.89-0.342c13.037 1.904 21.729 2.881 25.977 2.881 28.32-0.049 56.592 0.537 84.863 1.856 7.47 0.342 17.871-0.44 31.152-2.393l2.881 5.908c0.732 1.465 1.123 3.125 1.123 4.785v67.773c0 3.321-2.734 6.055-6.055 6.055l-110.89-0.489c-10.889 0.147-21.924 0.537-33.203 1.172-13.818 0.732-24.902 1.074-33.203 1.025-86.572-0.439-173.14-0.342-259.72 0.244-1.074 0-2.149 0.196-3.125 0.635-0.488 0.244-0.977 0.44-1.514 0.684-0.683-0.684-1.416-1.27-2.197-1.709-0.684-0.342-1.562-0.537-2.685-0.537-9.864 0.049-20.167-0.439-30.958-1.465l-97.363 1.221c-1.758 0-3.271 1.269-3.613 2.979l-96.192 502.78c-2.49-2.002-4.687-2.344-6.542-1.074-0.782 0.537-1.416 1.562-1.856 3.125-0.439 1.318-1.367 2.05-2.832 2.295-1.22 0.195-2.246 0.879-2.881 1.953-1.318 2.099-4.199 7.178-8.74 15.137-24.219 42.383-60.84 60.742-104.05 78.906-4.687 1.953-13.623 4.248-26.855 6.884-2.881 0.586-4.443 2.295-4.687 5.176-2.49-2.197-5.176-3.174-8.642-2.148-22.168 6.591-44.922 11.718-68.311 15.38-1.709-1.465-3.369-1.953-4.981-1.514-14.795 4.297-29.833 7.324-45.117 9.131-28.955 3.369-57.91 7.031-86.768 10.888-9.179 1.221-23.486 1.905-42.92 2.149l-73.145 1.513c17.334-62.011 51.074-115.58 101.22-160.74 34.277-37.549 73.29-71.192 116.99-100.83 31.153-21.143 61.67-43.945 94.141-62.988 9.18-5.323 17.53-11.035 25.049-17.041 13.184-4.248 21.484-7.764 24.903-10.595 8.154-6.787 18.505-14.844 31.103-24.219 3.125-2.344 5.957-4.981 8.496-7.91 8.252-9.424 23.145-29.541 44.775-60.352 11.377-16.26 19.336-31.152 23.829-44.629 15.869-47.656 24.609-98.242 33.398-147.61 1.025-5.81 0.977-10.596-0.244-14.355-0.439-1.513-1.855-2.539-3.467-2.49l-142.53 0.683-555.91-0.586c-1.27 0-2.539-0.098-3.76-0.342-5.322-0.977-9.179-1.318-11.572-1.025-2.539 0.342-4.004 2.734-4.443 7.226-18.896-8.398-37.793-8.789-56.69-1.221-0.781-2.099-1.855-3.369-3.174-3.906-2.539-0.927-5.273 0.391-6.152 2.93-2.002 5.957-1.611 10.84 1.074 14.648 2.588 1.513 2.539 2.099-0.049 1.758-1.66-0.245-2.881-1.66-2.881-3.321v-15.576c0-1.026-0.83-1.856-1.904-1.856h-1.563c-1.123 0-2.051 0.879-2.148 2.002l-1.367 22.803-0.489-19.922c-0.048-1.66-1.416-3.027-3.076-3.027l-1035.3-0.733c-0.146 0-0.244 0.098-0.244 0.244l-0.293 152.2c-0.586-48.242-0.537-95.654 0.098-142.24 0.049-3.028-0.147-5.518-0.586-7.52-0.928-4.785-2.197-5.664-3.711-2.637l-202.3 0.635-26.27 0.195-101.86-2.295c-1.563-0.049-3.076 0.537-4.248 1.611l-1.904 1.806c-1.221-0.488-2.295-1.025-3.223-1.562-0.342-0.244-0.781-0.342-1.172-0.342h-480.13c-1.758 0-3.174-1.416-3.174-3.174v-83.154c0-0.879 0.732-1.562 1.611-1.562l664.84-0.928c87.744 2.197 175.1 1.563 262.16-1.905 77.002 0.635 153.27 0.781 228.76 0.439 14.697-0.097 27.734 0.928 39.112 3.028 1.807 0.341 3.027-0.537 3.662-2.686 3.906 1.319 6.445 1.953 7.617 1.953 272.9 0.244 545.85-0.146 818.75-1.074 59.814-0.244 119.63 0.244 179.44 1.465 3.223 0.049 10.986-1.367 23.292-4.248 28.711 2.881 56.738 4.15 84.13 3.906 78.76-0.732 157.47-0.83 236.23-0.244 5.176 0.049 11.475-2.344 18.848-7.178-2.148 4.004-2.148 6.055 0.049 6.201 38.037 2.198 71.777 2.735 101.12 1.612 3.565-0.147 6.299-3.125 6.201-6.69-1.562-51.025 1.563-101.71-1.27-153.37-2.001-35.986-3.662-57.91-5.029-65.771-7.617-43.75-28.662-82.813-63.135-117.19-3.027-3.027-8.203-0.879-8.252 3.418l-0.098 14.063c-4.54-15.963-5.273-29.586-2.293-40.865z" fill="#B4BEDC"/> <path d="m3298.1 2840c17.92-14.063 26.563-35.986 30.713-58.935 4.541-25.195 6.836-50.586 6.934-76.221 0.195-77.685-0.391-129.49-8.057-182.57l0.098-14.063c0.049-4.297 5.225-6.445 8.252-3.418 34.473 34.375 55.518 73.438 63.135 117.19 1.367 7.862 3.027 29.785 5.029 65.771 2.833 51.66-0.292 102.34 1.27 153.37 0.098 3.565-2.636 6.543-6.201 6.69-29.346 1.123-63.086 0.586-101.12-1.612-2.198-0.146-2.198-2.197-0.05-6.201z" fill="#8E9CC0"/> <path d="m1482.6 2643.8c0.391 1.612-1.66 2.637-2.734 1.367-16.357-19.825-22.803-42.529-19.336-68.115 2.881-21.631 17.773-47.168 23.73-63.233 0.195-0.635 0.928-0.976 1.562-0.732h0.049c0.537 0.244 0.83 0.83 0.684 1.367-11.572 41.357-21.436 71.68-9.766 108.64 2.441 7.667 4.395 14.552 5.811 20.704z" fill="#F26257"/> <path d="m2142.8 2563.8c12.569-10.526 32.93-6.913 45.452 8.077 12.527 14.99 12.479 35.645-0.099 46.164-12.569 10.526-32.93 6.912-45.452-8.078-12.528-14.99-12.479-35.644 0.099-46.163z" fill="#B4BEDC"/> <path d="m4087.1 3104c-3.76-12.695-6.396-26.807-7.813-42.334-0.049-0.293-0.098-0.586-0.146-0.879l-35.889-123.58c-0.342-1.172-1.514-1.855-2.685-1.513l-0.098 0.049c-1.367 0.39-2.148 1.806-1.709 3.174 15.722 50.049 29.101 100.83 40.088 152.34-10.498-8.545-20.019-17.48-28.467-26.709-20.605-22.51-31.348-33.349-47.754-49.805-22.9-22.949-49.658-52.148-60.205-81.104l110.89 0.489c3.321 0 6.055-2.734 6.055-6.055v-67.773c0-1.66-0.391-3.32-1.123-4.785l-2.881-5.908c-13.184-3.174-26.806-3.76-40.821-1.66-0.244 0.049-0.537 0.049-0.781 0.049l-95.948-3.125c-0.683-0.049-1.318-0.342-1.757-0.879-1.27-1.562-2.295-3.515-3.076-5.908-2.979-35.302-9.424-64.502-19.336-87.598-10.986-25.488-37.256-59.717-48.974-87.402-8.643-20.508-22.119-60.4-4.785-78.272 28.467-29.297 85.595 28.907 103.42 49.658 24.17 28.174 41.895 45.752 75.293 83.545 33.008 37.354 52.441 80.811 72.217 129.05 6.397 15.576 11.523 34.326 15.332 56.201 6.006 34.18 9.18 56.348 9.62 66.504 0.927 21.729-0.342 44.922-3.906 69.482-3.761 26.319-12.013 47.9-24.757 64.746m-146.39-378.22c4.639 8.154 9.326 17.041 14.111 26.709 19.873 40.088 35.01 71.24 45.41 93.408 0.439 0.977 1.611 1.416 2.588 0.977l0.098-0.049c0.928-0.391 1.367-1.465 0.977-2.441-17.285-43.555-35.889-79.883-59.131-120.9-23.242-40.967-44.873-75.586-73.389-112.79-0.586-0.83-1.758-0.976-2.588-0.39l-0.098 0.049c-0.879 0.586-1.074 1.807-0.488 2.734 13.672 20.313 32.617 49.267 56.836 86.865 5.86 9.08 11.084 17.723 15.674 25.829z" fill="#F26257"/> <path d="m3944.8 2723.5c23.242 41.015 41.845 77.344 59.131 120.9 0.39 0.976-0.049 2.051-0.977 2.441l-0.098 0.049c-0.977 0.439-2.149 0-2.588-0.977-10.4-22.168-25.537-53.321-45.41-93.408-4.785-9.668-9.472-18.555-14.111-26.709-4.59-8.105-9.814-16.748-15.674-25.83-24.219-37.598-43.164-66.553-56.836-86.865-0.586-0.928-0.39-2.148 0.488-2.734l0.098-0.049c0.83-0.586 2.002-0.44 2.588 0.39 28.516 37.208 50.147 71.827 73.389 112.79z" fill="#34344C"/> <path d="m1547.4 2661.7c6.152 1.074 10.059 1.172 11.719 0.244l66.26-1.319c3.271-0.097 5.713 2.979 4.883 6.153-1.66 6.347-0.879 10.938 2.344 13.818-9.717 10.889-9.424 17.676 0.928 20.362-2.637-0.196-4.199 0.195-4.688 1.123-3.027 6.006-4.688 12.354-4.932 19.043-0.635 16.064-3.564 32.666-8.887 49.854-9.814 11.279-10.889 17.383-3.271 18.359-8.692 5.127-16.406 14.697-23.096 28.613l-141.99 0.293c-17.627-26.123-27.929-54.883-30.81-86.328-2.149-23.242-3.418-46.24-3.76-69.043-0.049-1.855 1.514-3.369 3.369-3.321l131.93 2.149m41.601 18.115c-3.028 2.442-4.883 6.152-5.567 11.084-2.099 15.771-3.857 34.668-5.273 56.592-0.244 3.711-2.93 14.16-8.154 31.348-0.244 0.781 0.195 1.611 1.025 1.807l1.904 0.488c0.879 0.195 1.758-0.195 2.197-1.026 17.139-32.959 29.736-62.549 18.457-98.877-0.585-1.953-2.978-2.685-4.589-1.416z" fill="#F26257"/> <path d="m1589 2679.8c1.611-1.269 4.004-0.537 4.59 1.416 11.279 36.328-1.318 65.918-18.457 98.877-0.44 0.83-1.318 1.221-2.197 1.026l-1.904-0.488c-0.83-0.196-1.269-1.025-1.025-1.807 5.225-17.188 7.91-27.637 8.154-31.348 1.416-21.924 3.174-40.82 5.273-56.592 0.684-4.931 2.539-8.642 5.566-11.084z" fill="#F4967D"/> <path d="m1611.8 2789.3c-7.617-0.976-6.543-7.08 3.271-18.359 18.408-1.221 33.106-7.227 44.043-18.018 22.705-22.412 11.719-61.914-25.537-52.002-10.351-2.686-10.644-9.473-0.928-20.362 22.802-2.588 39.063 3.516 48.779 18.311 13.818 21.094 7.91 49.219-9.717 66.602-15.282 15.039-35.253 22.998-59.911 23.828z" fill="#1B1E31"/> <path d="m2682.9 2697.7c0.635 0.488 1.709 0.927 3.223 1.269 0.586 0.586 1.318 1.026 2.246 1.27 22.119 6.006 44.14 12.256 66.113 18.847 10.254 3.076 29.004 4.785 56.25 5.176 9.668 26.27 13.135 53.663 10.449 82.178l-68.897 1.66c-1.123 0.049-2.197-0.098-3.271-0.44l-16.357-5.078c-1.27-0.39-2.49-0.927-3.662-1.563-17.432-9.765-37.403-23.193-45.654-21.631l-4.737-2.588c-3.076-2.49-5.225-3.906-6.445-4.15-12.94-3.711-25.146-2.637-36.523 3.222-8.935 4.59-26.904 15.137-53.857 31.592l-17.871-61.865c24.756-26.954 51.562-43.994 80.419-51.172 8.545-2.099 19.775-0.83 33.691 3.858 1.66 0.538 3.32-0.048 4.883-0.585z" fill="#F4967D"/> <path d="m1615.1 2771c5.322-17.188 8.252-33.789 8.887-49.854 0.244-6.689 1.904-13.037 4.932-19.043 0.488-0.928 2.051-1.318 4.688-1.123 37.256-9.912 48.242 29.59 25.537 52.002-10.939 10.791-25.636 16.797-44.044 18.018z" fill="#fff"/> <path d="m2672.2 2772.6-46.777 44.043c-11.279 0.879-23.828 1.025-37.744 0.439-3.125-0.146-5.078-3.369-5.859-9.668 26.953-16.455 44.922-27.002 53.857-31.592 11.377-5.859 23.584-6.933 36.523-3.222z" fill="#FFDFB6"/> <path d="m2678.6 2776.8c-2.393 12.842-2.148 25.928 0.733 39.258 0.049-2.246 0.049-2.002 0.097 0.683l-54.053-0.049 46.777-44.043c1.221 0.245 3.37 1.661 6.446 4.151z" fill="#F6EEE6"/> <path d="m2683.4 2779.4c1.22 12.402-0.098 24.609-4.004 36.67-2.881-13.33-3.125-26.416-0.733-39.258l4.737 2.588z" fill="#797E82"/> <path d="m2821.2 2806.4c-0.097 3.76-0.537 6.689-1.367 8.789-0.537 1.465-1.953 2.393-3.515 2.393l-136.87-0.879c-0.049-2.685-0.049-2.929-0.097-0.683 3.906-12.061 5.224-24.268 4.004-36.67 8.252-1.563 28.222 11.865 45.654 21.631 1.172 0.635 2.392 1.172 3.662 1.563l16.357 5.078c1.075 0.342 2.148 0.489 3.271 0.44l68.897-1.662z" fill="#FFDFB6"/> <path d="m1588.7 2817.9 104.69-0.586c3.271 0 4.443 4.297 1.66 5.908l-36.816 21.386c-87.06 3.467-174.41 4.101-262.16 1.905l-42.725-22.168c-2.881-1.514-1.807-5.859 1.465-5.859l91.894-0.293 141.99-0.293z" fill="#1B1E31"/> <path d="m4055.3 2849.6c-13.281 1.953-23.682 2.734-31.152 2.393-28.271-1.318-56.543-1.904-84.863-1.856-4.248 0-12.939-0.976-25.977-2.881l-0.39-9.18c0.781 2.393 1.806 4.346 3.076 5.908 0.439 0.537 1.074 0.83 1.757 0.879l95.948 3.125c0.244 0 0.537 0 0.781-0.049 14.013-2.099 27.636-1.513 40.82 1.661z" fill="#F4967D"/> <path d="m4146.2 2876.4 12.891 144.78c0.342 3.418-0.44 6.006-2.295 7.715-0.635 0.537-0.977 1.367-0.977 2.197l-0.146 8.203-12.256-152.25c-0.342-13.72 0.586-17.284 2.783-10.644z" fill="#1B1E31"/> <path d="m2672.3 2940.7-10.351 50.147-68.213-0.684 3.711-31.201 1.367-22.803c0.097-1.123 1.025-2.002 2.148-2.002h1.563c1.074 0 1.904 0.83 1.904 1.856v15.576c0 1.66 1.221 3.076 2.881 3.321 2.587 0.342 2.636-0.245 0.049-1.758 4.345-2.539 7.08-7.08 8.251-13.672 18.897-7.569 37.794-7.178 56.69 1.22z" fill="#8E9CC0"/> <path d="m1325.3 2936.2c-5.078 1.367-8.106 3.76-9.082 7.129-9.033 31.055-18.75 71.631-29.15 121.73-0.342 1.66 0.342 4.053 2.051 7.177-1.709-1.611-2.783-2.441-3.32-2.392-2.344 0.195-4.248 1.855-4.785 4.15l-25.635 109.13c-0.391 1.611 0.879 3.174 2.539 3.125l58.74-0.684 0.342 4.15-60.791 0.293c-1.026 0-1.904 0.733-2.148 1.709l-192.24 801.46c-0.342 1.465 0.732 2.881 2.246 2.881l453.66-2.002c0.635 0.928 1.026 2.832 1.172 5.615l-457.72 0.049c-1.074 0-2.051 0.781-2.197 1.855-4.004 22.559-6.738 36.719-8.203 42.432-23.779 93.408-46.045 186.28-66.797 278.56-5.225 23.193-13.623 51.367-19.775 78.32l-29.737 131.06c-0.537 2.246-2.539 3.809-4.834 3.809h-43.264c-0.781 0-1.367-0.732-1.172-1.465l28.223-130.57 83.057-403.27 0.146-5.713 168.16-803.91c0.928-0.879 1.123-2.637 0.537-5.225l1.074-0.635c0.683-0.439 1.172-1.123 1.367-1.904l17.48-83.887c0.732-3.467-1.953-6.787-5.566-6.738l-126.07 0.684c-12.793-0.391-19.971-2.051-21.484-4.98l151.61 0.488c2.344 0.049 4.395-1.66 4.834-3.955l28.711-147.36 1.904-1.806c1.172-1.074 2.685-1.66 4.248-1.611l101.86 2.293z" fill="#52577F"/> <path d="m1558.1 3087.7 450.15 2.002c-5.224 0.146-6.982 0.928-5.274 2.441-273.05 0.928-476.07 1.27-609.13 1.026-3.857 0-6.055 0.781-6.641 2.343-1.611-4.15-2.051-7.177-1.318-9.082l165.14 1.758c1.758 0.049 3.174-1.367 3.174-3.125l-0.293-149.76c1.514-3.027 2.783-2.148 3.711 2.637 0.439 2.002 0.635 4.492 0.586 7.52-0.634 46.581-0.683 93.993-0.097 142.24z" fill="#797E82"/> <path d="m2597.4 2959-3.711 31.201c-88.086 0.342-177.34 3.614-264.36 20.508-35.059 6.787-62.402 17.285-82.08 31.445-16.895 12.158-27.148 20.947-30.81 26.367-5.322 7.862-10.742 14.6-16.162 20.167l-53.565 0.244-138.52 0.83-450.15-2.002 0.293-152.2c0-0.146 0.098-0.244 0.244-0.244l1035.3 0.733c1.66 0 3.028 1.367 3.076 3.027l0.487 19.921z" fill="#fff"/> <path d="m3248 2935.4c2.637 26.807 5.078 53.467 7.373 79.883 2.295 26.221 1.953 51.27 1.807 76.904 0 1.563-0.489 3.076-1.416 4.345-2.246 3.076-4.883 4.492-7.959 4.297-36.719 8.154-71.729 7.715-105.08-1.318-81.738-22.168-144.92-67.529-223.24-84.326-84.57-18.164-170.8-23.73-257.52-24.365l10.351-50.147c0.439-4.492 1.904-6.885 4.443-7.226 2.393-0.293 6.25 0.049 11.572 1.025 1.221 0.244 2.49 0.342 3.76 0.342l555.91 0.586z" fill="#FFDFB6"/> <path d="m3575.8 2933.7-34.424 149.12c-36.573 167.33-74.121 334.33-112.7 500.98-5.811 25.049-15.283 68.799-28.467 131.35-12.012 57.178-32.667 136.86-45.996 208.01-0.439 2.344-0.391 4.687 0.147 7.08l-1.661-0.195c-0.732-0.098-1.367 0.39-1.514 1.123-5.811 29.345-11.963 58.545-18.505 87.695-0.635 2.93-0.538 6.494 0.341 10.742-2.246 0.537-3.515 1.66-3.857 3.272-9.717 51.465-25.293 107.76-34.668 152.88-11.279 54.004-22.705 108.01-34.228 161.96l-47.607 219.68c-0.147 0.781-0.879 1.367-1.709 1.367h-41.944c-0.537 0-0.928-0.439-0.83-0.976 10.303-73.486 23.291-146.44 38.965-218.75l65.283-346.78c1.172-1.514 1.416-3.565 0.782-6.055 1.464-1.709 2.441-3.662 2.929-5.957 5.078-24.414 8.496-48.095 10.254-70.996 3.369 0.879 5.127 0.293 5.273-1.709 1.221-20.752 4.59-41.162 10.059-61.23 2.686-9.961 5.518-27.93 8.399-53.857l68.505-361.77 96.192-502.78c0.342-1.709 1.855-2.979 3.613-2.979l97.364-1.221z" fill="#52577F"/> <path d="m3942.4 2933.7c10.547 28.955 37.305 58.155 60.205 81.104 16.406 16.456 27.149 27.295 47.754 49.805 8.447 9.229 17.969 18.164 28.467 26.709 35.157 177.39 53.027 357.37 53.564 540.04-12.061 1.27-22.021 1.416-29.883 0.489-1.709-0.196-2.734-1.905-3.076-5.176-0.684-9.375-1.807-18.75-3.369-28.174-11.865-72.021-28.271-143.31-49.316-213.87 14.355-22.705 24.121-47.364 29.345-73.975 9.961-50.977-11.475-81.592-45.557-115.09-27.686-27.197-35.742-62.354-47.363-83.203-29.101-52.393-80.615-95.557-140.14-108.3-31.543-6.787-38.232 17.676-33.496 42.822 7.178 37.598 33.838 57.52 69.824 95.996 21.484 22.949 17.968 44.287 17.236 80.127-0.049 2.441 0.146 4.834 0.586 7.226 5.469 30.42 20.654 55.518 45.508 75.244 28.125 22.217 58.887 43.701 92.237 64.405 27.099 82.129 46.386 167.82 57.812 257.03 0.244 1.66 0 2.93-0.732 3.809-0.684 0.781-1.905 1.171-3.614 1.123-33.691-0.928-88.769-0.977-165.28-0.098-10.352 0.146-16.602 0.488-18.701 1.025-1.709 0.44-3.027 1.855-3.369 3.614-2.002 10.108-1.904 19.434 0.244 27.881 0.488 1.953 1.806 3.613 3.613 4.492 3.369 1.66 7.324 2.393 11.816 2.149 1.074-0.049 2.197 0.146 3.174 0.586 1.464 0.635 2.197 1.221 2.246 1.758l-0.196 16.895c-1.416 75.732-0.196 142.82 3.613 201.32 1.904 29.15 7.177 62.793 15.869 101.02 0.293 1.27-0.684 2.441-1.953 2.441l-133.69-0.342-194.14-1057.1c0.537-0.244 1.026-0.44 1.514-0.684 0.976-0.439 2.051-0.635 3.125-0.635 86.572-0.586 173.14-0.684 259.72-0.244 8.301 0.049 19.385-0.293 33.203-1.025 11.282-0.635 22.316-1.025 33.205-1.172z" fill="#F6EEE6"/> <path d="m1553.9 2935.3 0.293 149.76c0 1.758-1.416 3.174-3.174 3.125l-165.14-1.758-34.277-150.49 202.3-0.635z" fill="#fff"/> <path d="m3227.7 3246.9c9.815-27.344 15.82-50.977 18.018-70.85 2.051-18.506 2.735-43.604 2.051-75.195 3.076 0.195 5.713-1.221 7.959-4.297 0.927-1.269 1.416-2.783 1.416-4.345 0.146-25.635 0.489-50.684-1.807-76.904-2.295-26.416-4.736-53.076-7.373-79.883l142.53-0.683c1.612-0.049 3.028 0.977 3.467 2.49 1.221 3.76 1.27 8.545 0.244 14.355-8.789 49.365-17.529 99.951-33.398 147.61-4.492 13.477-12.451 28.369-23.829 44.629-21.631 30.811-36.523 50.928-44.775 60.352-2.539 2.929-5.371 5.566-8.496 7.91-12.598 9.375-22.949 17.432-31.103 24.219-3.419 2.832-11.719 6.347-24.903 10.595z" fill="#8E9CC0"/> <path d="m3611.6 2937.4 194.14 1057.1c-0.537 2.881-0.049 6.25 1.465 10.156l10.742 53.906 12.305 64.014 47.51 259.28 21.192 125.29c0.195 1.221-0.732 2.344-1.953 2.344l-39.551 0.244c-1.563 0.049-2.978-1.074-3.271-2.637l-27.637-130.13-57.813-269.78-5.078-20.606-19.092-86.426c-0.83-1.416-1.123-3.125-0.879-5.127-12.598-56.689-24.853-113.62-36.768-170.75-8.496-40.821-19.043-80.42-27.1-119.97-5.517-27.197-11.523-55.176-18.018-83.936-21.533-95.313-53.809-243.12-96.826-443.36-4.248-19.727-9.912-46.387-17.041-80.029-1.318-6.299-3.515-11.035-6.592-14.209l34.424-149.12c10.791 1.025 21.094 1.513 30.958 1.465 1.123 0 2.001 0.195 2.685 0.537 0.782 0.44 1.514 1.026 2.198 1.71z" fill="#34344C"/> <path d="m1351.6 2936 34.277 150.49c-0.732 1.904-0.293 4.931 1.318 9.082l21.533 89.355c1.367 0.733 2.148 2.051 2.393 3.857-1.367 0.147-1.856 1.172-1.416 3.125 35.498 162.16 70.703 324.36 105.62 486.62 4.395 20.459 15.381 73.291 32.91 158.59 10.937 53.125 22.363 105.91 34.326 158.3 0.244 2.295 0.635 3.564 1.123 3.809l9.57 49.658-58.691 9.229-15.625-58.447c-0.146-2.783-0.537-4.688-1.172-5.615l-200.73-804.35-0.342-4.15-27.539-113.33c-1.709-3.125-2.393-5.517-2.051-7.177 10.4-50.098 20.117-90.674 29.15-121.73 0.976-3.369 4.004-5.762 9.082-7.129l26.271-0.196z" fill="#34344C"/> <path d="m2615.6 2939.5c-1.172 6.592-3.906 11.133-8.251 13.672-2.686-3.809-3.076-8.691-1.074-14.648 0.879-2.539 3.613-3.857 6.152-2.93 1.319 0.537 2.392 1.807 3.173 3.906z" fill="#EBF2FA"/> <path d="m4087.1 3104c16.895 85.791 28.369 160.35 34.424 223.73 6.494 68.018 11.963 138.33 16.455 210.84 0.928 14.6 1.172 44.775 0.781 90.576-0.049 1.807 1.465 3.32 3.271 3.32h19.629c1.855 0 3.418-1.465 3.516-3.32 4.443-80.713 6.836-134.91 7.227-162.6 2.051-135.2-6.689-285.25-16.699-427.3l0.146-8.203c0-0.83 0.342-1.66 0.977-2.197 1.855-1.709 2.637-4.297 2.295-7.715 6.689 73.389 12.06 156.35 16.113 248.88 5.419 123 3.955 242.19-4.493 357.62-0.097 1.123 0.342 2.198 1.221 2.979 2.295 2.051 6.445 2.686 12.402 1.953-17.529 5.761-34.814 5.323-51.953-1.27-0.537-182.67-18.408-362.65-53.564-540.04-10.986-51.514-24.365-102.3-40.088-152.34-0.439-1.367 0.342-2.783 1.709-3.174l0.098-0.049c1.172-0.342 2.344 0.342 2.685 1.513l35.889 123.58c0.049 0.293 0.097 0.586 0.146 0.879 1.417 15.528 4.053 29.64 7.813 42.335z" fill="#34344C"/> <path d="m4347.1 3308.8c5.029-8.154 9.912-16.162 14.697-24.023 4.98-8.154 10.157-15.967 15.576-23.34 26.221-35.694 53.467-70.215 81.787-103.47 11.475-13.476 26.368-28.711 44.678-45.703 14.55-13.525 29.833-28.369 45.85-44.433 16.845-16.944 36.132-33.74 57.812-50.391 0.732-0.586 0.879-1.612 0.293-2.295l-0.586-0.635c-0.488-0.586-1.318-0.683-1.904-0.293-8.105 5.322-23.779 15.869-34.18 25.391-33.398 30.567-56.689 52.686-69.922 66.406-4.443 4.639-18.311 19.58-41.504 44.824-45.898 49.853-86.084 105.13-123.14 161.57-3.223-7.471-6.104-14.941-8.594-22.461-13.916-42.09-7.471-88.818 21.143-122.41 6.25-7.373 15.674-14.893 28.223-22.559 24.805-15.136 45.313-30.518 59.961-52.539 11.084-16.602 19.433-28.125 25.098-34.522 36.035-40.967 81.689-66.162 136.91-75.537 14.356-2.441 26.221-2.198 35.645 0.683 22.559 6.934 24.219 26.318 14.844 45.02-23.292 46.338-93.262 64.844-112.21 123.93-11.377 35.547-20.166 67.383-50 90.43-17.773 13.72-36.963 25.195-57.568 34.424-26.466 11.817-54.103 22.462-82.911 31.934z" fill="#F26257"/> <path d="m2593.7 2990.2 68.213 0.684c86.718 0.635 172.95 6.201 257.52 24.365 78.32 16.797 141.5 62.158 223.24 84.326 33.35 9.033 68.359 9.473 105.08 1.318 0.684 31.592 0 56.689-2.051 75.195-2.197 19.873-8.203 43.506-18.018 70.85-7.519 6.006-15.869 11.718-25.049 17.041-32.471 19.043-62.988 41.846-94.141 62.988-43.701 29.638-82.715 63.281-116.99 100.83-53.369 6.396-105.47 6.201-156.3-0.537-5.615-0.732-11.328-0.488-16.895 0.781-42.725 9.619-85.01 15.821-129.3 27.783-15.381 4.151-47.412 12.842-96.093 26.075-27.784 7.568-59.668 19.434-95.655 35.596-1.22 0.537-1.953 1.758-1.855 3.076l3.516 58.887c0.098 1.416 1.172 2.588 2.588 2.734s2.734-0.781 3.076-2.148c1.026-4.053 2.686-7.276 4.883-9.668 1.221-1.367 3.027-2.002 4.834-1.807l68.066 7.617-69.775 191.46c-1.074 2.979-1.66 6.152-1.66 9.326-0.244 73.096-2.979 145.85-8.154 218.36-0.537 1.27-0.391 2.637 0.439 4.15l-18.018 284.28c-0.146 1.954-1.611 3.565-3.516 3.907l-12.451 2.148c-40.234 5.224-82.178 7.275-125.88 6.055-2.637-4.883-3.906-10.986-3.809-18.359 0-0.977-0.684-1.807-1.66-2.002-0.928-0.146-1.905 0.391-2.198 1.318l-31.054 94.043c-0.537 1.514 0.39 3.125 1.953 3.467 1.807 0.39 3.809 0.293 5.908-0.293l32.959 20.557c0.391 0.244 0.83 0.439 1.27 0.586 7.373 2.051 15.771 2.295 25.146 0.781 40.771-6.689 74.512-25.196 101.17-55.469 3.76 4.638 6.347 9.765 7.715 15.43 5.127 21.387 8.789 41.064 10.986 59.033 4.395 36.035-1.709 63.086-40.82 71.142-35.108 7.276-69.141 7.617-100.73 21.045-72.705 30.86-135.6 51.807-213.96 47.95-18.457-0.928-47.754-9.082-35.254-34.717 3.418-7.031 11.084-14.795 23.047-23.34 17.236-12.305 42.432-28.076 75.635-47.314 14.746-8.545 32.373-20.801 48.535-30.908 2.832-1.807 4.931-4.541 5.859-7.715l23.096-76.368 42.139-142.24c0.635-2.001 0.781-4.101 0.439-6.201l-28.467-185.89c0.537-2.198 0.44-4.053-0.195-5.567-19.824-138.52-35.986-277.83-48.486-417.92-0.098-1.075-1.514-1.368-2.051-0.44-6.348 11.328-13.574 24.365-21.631 39.111-21.631 39.502-47.07 81.152-76.318 125-51.026 76.465-111.86 159.62-182.52 249.41-0.977 1.27-2.685 1.758-4.199 1.172l-29.834-11.474-86.474-46.777c-4.639-2.393-6.494-4.639-5.567-6.787 80.811-190.58 160.84-381.49 240.09-572.7 18.213-43.896 41.65-97.315 70.41-160.25 1.563-1.318 3.076-3.906 4.59-7.764l48.047-90.967 3.174-5.761c5.42-5.566 10.84-12.305 16.162-20.167 3.662-5.419 13.916-14.208 30.81-26.367 19.678-14.16 47.022-24.658 82.08-31.445 87.014-16.895 176.27-20.166 264.36-20.508m-350.83 434.57c10.498-55.273 32.178-105.96 89.306-124.17 36.035-11.524 85.498-1.221 122.56 12.06 73.779 26.514 146 54.297 219.78 77.588 28.125 8.887 45.313 14.16 51.514 15.771 0.684 0.196 1.367-0.195 1.563-0.83l0.049-0.097c0.196-0.635-0.195-1.319-0.83-1.513-97.412-29.981-183.01-63.672-274.02-97.559-29.688-11.035-56.201-16.406-79.59-16.064-82.52 1.172-121 59.766-132.91 134.77-0.097 0.586 0.293 1.123 0.879 1.221h0.049c0.78 0.146 1.512-0.391 1.659-1.173z" fill="#1B1E31"/> <path d="m4046.8 3384.6c-5.127-15.674-10.693-31.543-16.748-47.607-43.457-115.87-105.47-218.65-185.99-308.4-0.879-0.976-2.344-1.074-3.32-0.195l-0.098 0.049c-0.977 0.879-1.074 2.344-0.195 3.32 54.639 61.23 99.268 124.85 133.94 190.82 21.484 40.869 41.699 89.942 60.596 147.27-33.35-20.703-64.112-42.188-92.237-64.405-24.854-19.726-40.039-44.824-45.508-75.244-0.44-2.392-0.635-4.785-0.586-7.226 0.732-35.84 4.248-57.178-17.236-80.127-35.986-38.476-62.647-58.398-69.824-95.996-4.736-25.146 1.953-49.609 33.496-42.822 59.521 12.744 111.04 55.908 140.14 108.3 11.621 20.849 19.678 56.006 47.363 83.203 34.082 33.496 55.518 64.112 45.557 115.09-5.226 26.61-14.992 51.269-29.347 73.974z" fill="#F26257"/> <path d="m4046.8 3384.6c21.045 70.556 37.451 141.85 49.316 213.87 1.563 9.424 2.686 18.799 3.369 28.174-0.781 1.318-1.807 2.051-3.027 2.148-1.123 0.049-2.344-0.586-3.662-1.904-11.426-89.209-30.713-174.9-57.812-257.03-18.897-57.324-39.112-106.4-60.596-147.27-34.668-65.967-79.297-129.59-133.94-190.82-0.879-0.977-0.781-2.442 0.195-3.32l0.098-0.049c0.977-0.879 2.441-0.781 3.32 0.195 80.518 89.746 142.53 192.53 185.99 308.4 6.056 16.064 11.622 31.933 16.749 47.607z" fill="#34344C"/> <path d="m1289.1 3072.2 27.539 113.33-58.74 0.684c-1.66 0.049-2.93-1.514-2.539-3.125l25.635-109.13c0.537-2.295 2.441-3.955 4.785-4.15 0.537-0.049 1.611 0.781 3.32 2.392z" fill="#F6EEE6"/> <path d="m3541.4 3082.8c3.076 3.174 5.273 7.91 6.592 14.209 7.129 33.643 12.793 60.303 17.041 80.029 43.017 200.24 75.293 348.05 96.826 443.36 6.494 28.76 12.5 56.738 18.018 83.936 8.057 39.551 18.604 79.15 27.1 119.97 11.914 57.129 24.17 114.06 36.768 170.75l-363.62-0.342c-1.758 0.391-3.125-0.977-4.101-4.052-6.397-20.557-13.624-40.723-21.631-60.449-0.538-2.393-0.586-4.737-0.147-7.08 13.33-71.143 33.984-150.83 45.996-208.01 13.183-62.549 22.656-106.3 28.467-131.35 38.573-166.65 76.122-333.64 112.69-500.98z" fill="#F6EEE6"/> <path d="m2200.3 3088.6-3.174 5.761-36.719-3.32c-2.588-2.099-7.177-2.832-13.672-2.197l53.565-0.244z" fill="#8E9CC0"/> <path d="m2008.2 3089.7 138.52-0.83c6.494-0.635 11.084 0.098 13.672 2.197l-157.47 1.074c-1.709-1.514 0.049-2.295 5.274-2.441z" fill="#34344C"/> <path d="m2160.4 3091.1 36.719 3.32-48.047 90.967-740.38-0.488-21.533-89.355c0.586-1.562 2.783-2.343 6.641-2.343 133.06 0.244 336.08-0.098 609.13-1.026l157.47-1.075z" fill="#F6EEE6"/> <path d="m2149.1 3185.4c-1.514 3.858-3.027 6.446-4.59 7.764 1.074-1.025 0.83-2.051-0.781-3.076-0.244-0.147-0.537-0.195-0.781-0.195l-731.84-1.124c-0.244-1.806-1.026-3.125-2.393-3.857l740.38 0.488z" fill="#797E82"/> <path d="m1411.1 3188.7 731.84 1.124c0.244 0 0.537 0.049 0.781 0.195 1.612 1.025 1.855 2.051 0.781 3.076-28.76 62.939-52.197 116.36-70.41 160.25-79.248 191.21-159.28 382.13-240.09 572.7-0.928 2.148 0.928 4.395 5.567 6.787-6.641 5.908-12.5 11.572-17.529 16.895-11.621 12.353-23.584 24.414-35.938 36.084-7.227 6.885-15.918 10.205-26.025 9.863l-177.54-0.342c-11.963-52.393-23.389-105.18-34.326-158.3-17.529-85.303-28.516-138.14-32.91-158.59-34.912-162.26-70.117-324.46-105.62-486.62-0.441-1.953 0.047-2.978 1.415-3.125z" fill="#F6EEE6"/> <path d="m1317 3189.7 200.73 804.35-453.66 2.002c-1.514 0-2.588-1.416-2.246-2.881l192.24-801.46c0.244-0.977 1.123-1.709 2.148-1.709l60.792-0.293z" fill="#F6EEE6"/> <path d="m2242.9 3424.7c-0.147 0.781-0.879 1.318-1.66 1.172h-0.049c-0.586-0.098-0.977-0.635-0.879-1.221 11.914-75 50.391-133.59 132.91-134.77 23.389-0.342 49.902 5.029 79.59 16.064 91.016 33.887 176.61 67.578 274.02 97.559 0.635 0.195 1.026 0.879 0.83 1.513l-0.049 0.097c-0.196 0.635-0.879 1.026-1.563 0.83-6.201-1.611-23.389-6.885-51.514-15.771-73.779-23.291-146-51.074-219.78-77.588-37.061-13.281-86.523-23.584-122.56-12.06-57.127 18.214-78.807 68.898-89.305 124.17z" fill="#34344C"/> <path d="m2991.5 3427.8c-50.147 45.166-83.887 98.73-101.22 160.74-23.583 0.489-48.388 0.098-74.365-1.123-1.904-0.049-3.613 1.123-5.127 3.564 0.342-1.221 0.049-2.246-0.781-3.125-0.488-0.488-1.172-0.781-1.855-0.733-16.064 1.27-32.227 1.465-48.389 0.635-28.223-1.465-57.52-3.369-87.842-5.713-29.687-2.295-59.521-4.248-89.551-5.859l-68.066-7.617c-1.807-0.195-3.614 0.439-4.834 1.807-2.197 2.392-3.857 5.615-4.883 9.668-0.342 1.367-1.66 2.295-3.076 2.148s-2.49-1.318-2.588-2.734l-3.516-58.887c-0.097-1.319 0.635-2.539 1.855-3.076 35.986-16.162 67.871-28.028 95.655-35.596 48.681-13.232 80.712-21.924 96.093-26.075 44.287-11.962 86.572-18.164 129.3-27.783 5.567-1.269 11.279-1.513 16.895-0.781 50.83 6.739 102.93 6.934 156.3 0.538z" fill="#8E9CC0"/> <path d="m3378.6 3440.7-68.505 361.77-89.942-249.36c0.244-2.881 1.806-4.59 4.687-5.176 13.232-2.636 22.168-4.931 26.855-6.884 43.213-18.164 79.834-36.523 104.05-78.906 4.541-7.959 7.422-13.038 8.74-15.137 0.635-1.074 1.66-1.758 2.881-1.953 1.465-0.245 2.393-0.977 2.832-2.295 0.44-1.563 1.074-2.588 1.856-3.125 1.855-1.271 4.052-0.929 6.543 1.073z" fill="#F6EEE6"/> <path d="m3220.2 3553.1 89.942 249.36c-2.881 25.928-5.713 43.896-8.399 53.857-5.469 20.068-8.838 40.479-10.059 61.23-0.146 2.002-1.904 2.588-5.273 1.709l-143.16-352.93c23.388-3.662 46.142-8.789 68.311-15.38 3.466-1.024 6.151-0.048 8.642 2.149z" fill="#1B1E31"/> <path d="m3143.2 3566.3 143.16 352.93c-1.758 22.9-5.176 46.582-10.254 70.996-0.488 2.295-1.465 4.248-2.929 5.957l-278.08-0.683-31.69-408.54c19.434-0.244 33.74-0.928 42.92-2.149 28.857-3.857 57.813-7.519 86.768-10.888 15.284-1.807 30.322-4.834 45.117-9.131 1.61-0.44 3.27 0.048 4.98 1.513z" fill="#F6EEE6"/> <path d="m2291.1 3994.8-337.06-0.098c-16.065 1.074-25.391-3.955-27.979-15.039l29.834 11.474c1.514 0.586 3.223 0.098 4.199-1.172 70.654-89.795 131.49-172.95 182.52-249.41 29.248-43.848 54.687-85.498 76.318-125 8.057-14.746 15.283-27.783 21.631-39.111 0.537-0.928 1.953-0.635 2.051 0.44 12.5 140.09 28.662 279.39 48.486 417.92z" fill="#F6EEE6"/> <path d="m2810.8 3590.9-10.302 404.64-297.7-0.293c5.176-72.51 7.91-145.26 8.154-218.36 0-3.174 0.586-6.347 1.66-9.326l69.775-191.46c30.029 1.612 59.864 3.565 89.551 5.859 30.322 2.344 59.619 4.248 87.842 5.713 16.162 0.83 32.324 0.635 48.389-0.635 0.683-0.049 1.367 0.244 1.855 0.733 0.83 0.879 1.123 1.904 0.781 3.125z" fill="#F6EEE6"/> <path d="m2963.5 3587 31.69 408.54c0.586 0.977 0.732 2.148 0.391 3.467-1.416 0.537-2.1 1.709-1.953 3.516 9.375 111.43 14.99 223.1 27.441 334.23l8.301 120.07c0.537 8.252-6.299 15.234-14.795 15.039h-0.635c-8.984-0.146-16.455-6.787-17.578-15.527l-14.795-112.4-44.482-345.02c-0.488-0.83-0.635-1.758-0.391-2.783 0.635-2.002 0.782-3.955 0.538-5.908-19.678-145.75-35.303-267.87-46.875-366.41-0.683-6.006-1.855-11.865-3.467-17.627-0.293-1.026-1.806-0.928-1.904 0.146l-30.078 388.33c-0.049 0.342 0 0.635 0.147 0.928 0.147 0.391 0.342 0.781 0.537 1.172-0.342 0.732-0.439 1.416-0.195 2.148-1.025 0.635-1.562 1.416-1.611 2.442-4.834 73.388-10.742 146.73-17.676 219.92-2.247 23.633-4.199 58.154-5.909 103.61-1.074 19.58-2.49 39.063-4.199 58.398-2.393 26.807-34.717 22.949-34.131-1.172 0.39-15.967 0.683-31.885 0.83-47.706l8.74-334.72-0.879-4.102 10.302-404.64c1.514-2.442 3.223-3.613 5.127-3.564 25.977 1.221 50.782 1.612 74.365 1.123l73.144-1.514z" fill="#1B1E31"/> <path d="m2936.6 3996.1-81.103 0.635c-0.195-0.391-0.39-0.781-0.537-1.172-0.147-0.293-0.195-0.586-0.147-0.928l30.078-388.33c0.098-1.074 1.611-1.172 1.904-0.146 1.612 5.761 2.783 11.62 3.467 17.627 11.572 98.535 27.197 220.65 46.875 366.41 0.245 1.953 0.098 3.906-0.537 5.908z" fill="#F6EEE6"/> <path d="m4099.4 3626.6c0.342 3.271 1.367 4.98 3.076 5.176 7.861 0.927 17.822 0.781 29.883-0.489 17.139 6.592 34.424 7.031 51.953 1.27 6.787 0.537 11.182-0.684 13.184-3.662 2.588 1.611 4.785 1.953 6.69 0.928 1.953 1.855 3.857 2.734 5.761 2.686 66.943-2.051 131.93-2.197 195.07-0.391 3.466 0.098 6.396 2.637 7.031 6.055 1.904 10.205 2.051 19.385 0.488 27.588-0.488 2.588-2.539 4.59-5.127 4.98l-13.184 2.1c-1.66 0.244-2.881 1.66-2.93 3.369-1.025 73.584-2.441 144.09-4.199 211.47-0.879 34.131-4.785 67.481-11.719 100.15l-4.883 12.744c-5.42 18.359-12.598 33.594-21.533 45.752-17.09 23.291-50.098 50.244-80.713 50.928-32.178 0.684-104.88 0.977-218.21 0.928-35.303-0.049-75.049-35.596-91.26-63.477l-15.136-32.275c-0.586-1.27-1.905-2.1-3.321-2.1l-129.74-0.83c-0.586 0-1.124 0.146-1.612 0.488-1.611 1.074-2.197 2.637-1.758 4.688-1.514-3.906-2.002-7.276-1.465-10.156l133.69 0.342c1.27 0 2.246-1.172 1.953-2.441-8.692-38.233-13.965-71.875-15.869-101.02-3.809-58.496-5.03-125.59-3.613-201.32 14.893 3.027 27.881 4.443 39.014 4.296 126.37-2.001 258.98-2.001 397.85 0 12.402 0.147 20.752-1.22 25.049-4.15 7.275-4.931 8.545-10.839 3.809-17.676-0.586-0.879-1.562-1.367-2.588-1.416-46.63-0.928-98.633-1.807-155.96-2.539-8.594-0.098-18.311 2.099-26.465 2.246-12.061 0.195-44.238 0.39-96.436 0.586-0.488 0-20.019-0.781-58.545-2.393-18.506-0.732-38.037-0.879-58.643-0.341-27.099 0.732-49.414 2.197-66.894 4.492-0.049-0.537-0.781-1.123-2.246-1.758-0.977-0.44-2.1-0.635-3.174-0.586-4.492 0.244-8.447-0.489-11.816-2.149-1.807-0.879-3.125-2.539-3.613-4.492-2.148-8.447-2.246-17.773-0.244-27.881 0.342-1.758 1.66-3.174 3.369-3.614 2.099-0.537 8.349-0.879 18.701-1.025 76.514-0.879 131.59-0.83 165.28 0.098 1.709 0.048 2.93-0.342 3.614-1.123 0.732-0.879 0.976-2.149 0.732-3.809 1.318 1.318 2.539 1.953 3.662 1.904 1.22-0.098 2.245-0.831 3.027-2.149z" fill="#52577F"/> <path d="m3921.9 3690.1 0.196-16.895c17.48-2.295 39.795-3.76 66.894-4.492 20.605-0.538 40.136-0.391 58.643 0.341 38.526 1.612 58.057 2.393 58.545 2.393 52.197-0.195 84.375-0.391 96.436-0.586 8.154-0.147 17.871-2.344 26.465-2.246 57.324 0.732 109.33 1.611 155.96 2.539 1.026 0.049 2.002 0.537 2.588 1.416 4.736 6.836 3.467 12.744-3.809 17.676-4.297 2.93-12.646 4.297-25.049 4.15-138.87-2.001-271.48-2.001-397.85 0-11.133 0.147-24.121-1.269-39.014-4.296z" fill="#34344C"/> <path d="m3354.4 3930.2c8.007 19.726 15.234 39.893 21.631 60.449 0.976 3.076 2.344 4.443 4.101 4.052l-0.293 5.127 127.34 361.86c8.252 21.533 15.674 41.113 22.363 58.74 5.078 13.477 2.49 26.709-12.939 27.344-5.811 0.244-10.01-1.612-12.646-5.566-3.662-5.469-9.522-19.141-17.53-41.065l-153.37-371.58c-0.879-4.248-0.976-7.812-0.341-10.742 6.542-29.15 12.695-58.35 18.505-87.695 0.146-0.733 0.781-1.221 1.514-1.123l1.66 0.196z" fill="#1B1E31"/> <path d="m1926 3979.7c2.588 11.084 11.914 16.113 27.979 15.039l-12.256 0.44c-0.586 0-1.074 0.488-1.074 1.123v1.513c0 1.221 0.977 2.198 2.198 2.246l34.228 0.44-44.531 0.39c-2.783 0-5.371 1.611-6.543 4.15l-21.045 44.775c-14.16 5.127-27.783 9.082-40.82 11.865-26.807 5.713-87.793 6.787-106.35-19.141-2.637-3.662-7.91-12.5-15.82-26.465 4.346-3.516 9.424-6.299 15.332-8.35 2.588-0.928 3.809-2.734 3.613-5.469-0.049-0.391-0.684-1.221-2.002-2.539 2.442 0.195 4.541-0.049 6.25-0.732 1.172-0.439 1.318-2.051 0.195-2.686-0.977-0.537-2.734-0.732-5.322-0.537 10.107 0.342 18.798-2.979 26.025-9.863 12.353-11.67 24.316-23.731 35.938-36.084 5.029-5.322 10.888-10.986 17.529-16.895l86.474 46.78z" fill="#F4967D"/> <path d="m4375.4 3987.9c-1.172 1.855-1.514 3.467-1.025 4.834 0.439 1.368 1.855 2.051 4.15 2.051 207.47-0.537 414.99-0.39 622.46 0.391v4.785l-630.47 0.683 4.883-12.744z" fill="#797E82"/> <polygon points="996.65 3994.7 996.51 4000.4 1 4000.3 1 3994.6" fill="#797E82"/> <path d="m2291.1 3994.8c0.635 1.514 0.733 3.369 0.195 5.567l-314.16 0.098-34.228-0.44c-1.221-0.049-2.198-1.025-2.198-2.246v-1.513c0-0.635 0.488-1.123 1.074-1.123l12.256-0.44 337.06 0.097z" fill="#797E82"/> <path d="m2800.5 3995.6 0.879 4.102-298.14-0.244c-0.83-1.514-0.977-2.881-0.439-4.15l297.7 0.292z" fill="#797E82"/> <path d="m3273.2 3996.2c0.635 2.49 0.39 4.541-0.782 6.055 0.586-0.83 0.342-1.612-0.684-2.246-0.293-0.195-0.635-0.293-0.977-0.293l-275.24-0.733c0.342-1.318 0.195-2.49-0.391-3.467l278.08 0.684z" fill="#797E82"/> <path d="m3743.7 3995.1c-0.244 2.002 0.049 3.711 0.879 5.127l-364.8-0.342 0.293-5.127 363.62 0.342z" fill="#797E82"/> <path d="m1760.1 3995.7c2.588-0.195 4.346 0 5.322 0.537 1.123 0.635 0.977 2.246-0.195 2.686-1.709 0.684-3.808 0.927-6.25 0.732l-175.29-0.488c-0.488-0.244-0.879-1.514-1.123-3.809l177.54 0.342z" fill="#797E82"/> <path d="m2936.6 3996.1c-0.244 1.025-0.097 1.953 0.391 2.783h-81.689c-0.244-0.732-0.146-1.416 0.195-2.148l81.103-0.635z" fill="#52577F"/> <path d="m5001 3999.9v1001.1h-5e3v-1000.7l995.51 0.146-83.057 403.27c-48.828 3.223-97.119 9.912-144.87 20.02-34.033 7.275-67.48 16.504-100.24 27.734-10.693 3.662-19.726 8.398-27.051 14.208-43.75 34.717 73.535 60.938 89.404 64.454 28.272 6.298 51.709 10.938 70.313 13.867 66.602 10.449 116.75 19.336 183.69 26.172 217.82 22.119 437.4 36.67 636.18 44.629 201.32 8.008 417.38 13.574 648.19 16.65 96.924 1.27 282.91 1.025 557.96-0.781 23.388-0.146 56.054-2.49 82.08-2.783 203.27-2.198 403.81-8.74 601.56-19.678 151.9-8.447 293.46-18.896 424.71-31.396 41.455-3.955 81.787-8.545 121-13.819 77.1-10.351 150.44-20.312 224.95-39.99 14.795-3.906 99.512-28.906 60.059-57.568-10.986-7.959-24.804-14.502-41.357-19.531-110.74-33.643-246.14-47.949-353.17-59.863-20.605-2.295-43.359-10.157-69.043-4.102l-47.51-259.28c12.842 2.1 25.537 4.15 38.184 6.152 12.354 2.002 25.146 3.516 38.379 4.59 69.58 5.811 121 9.326 154.2 10.449 81.934 2.783 166.55 1.953 253.91-2.539 47.559-2.49 94.922-7.52 142.04-15.088 30.713-4.932 58.203-11.182 82.568-18.652 8.35-2.588 15.869-6.445 22.607-11.572 4.297-3.321 6.055-8.691 4.297-13.232-7.862-20.264-105.37-33.399-130.37-36.67-32.08-4.199-61.133-4.101-87.109 0.293 8.936-12.158 16.113-27.393 21.533-45.752l630.47-0.684z" fill="#F6EEE6"/> <path d="m1759 3999.7c1.318 1.318 1.953 2.148 2.002 2.539 0.196 2.734-1.025 4.541-3.613 5.469-5.908 2.051-10.986 4.834-15.332 8.35-3.662-0.83-7.324-0.733-10.986 0.341-44.531 13.184-90.479 24.024-137.79 32.471l-9.57-49.658 175.29 0.488z" fill="#F6EEE6"/> <path d="m2801.4 3999.7-8.74 334.72c-12.158-2.832-24.561-3.857-37.11-3.125-20.459 1.221-30.859 1.855-31.104 1.855-64.599 0.049-121.14-0.83-169.73-2.637-30.127-1.123-57.47-0.342-82.031 2.343l-3.418-43.066 12.451-2.148c1.905-0.342 3.369-1.953 3.516-3.907l18.018-284.28 298.14 0.246z" fill="#F6EEE6"/> <path d="m2855.3 3998.9h81.689l44.482 345.02-0.634 1.171c-1.074 1.954-3.711 2.295-5.274 0.733l-5.761-5.762c-0.586-0.586-1.319-0.977-2.1-1.172-8.448-1.807-16.358-2.783-23.78-2.881-30.029-0.44-60.351-1.563-90.966-3.369-3.321-0.195-9.326 0.879-18.066 3.223-1.514 0.391-3.125-0.245-3.858-1.611-1.269-2.344-1.562-5.469-0.928-9.375 1.709-45.459 3.662-79.98 5.909-103.61 6.933-73.193 12.842-146.53 17.676-219.92 0.048-1.026 0.586-1.807 1.611-2.442z" fill="#F6EEE6"/> <path d="m2995.5 3999 275.24 0.733c0.342 0 0.684 0.098 0.977 0.293 1.025 0.635 1.27 1.416 0.684 2.246l-65.283 346.78c-15.283-4.492-30.615-7.275-45.899-8.349-46.63-3.271-93.359-4.59-140.23-3.955-12.451-111.13-18.066-222.8-27.441-334.23-0.147-1.807 0.536-2.979 1.952-3.516z" fill="#F6EEE6"/> <path d="m1518.9 3999.6 15.625 58.447c-21.778 2.832-59.277 9.375-55.274 37.354 0.244 1.611 0.879 3.125 1.855 4.443 14.453 19.042 49.902 30.664 72.412 35.791 1.367 0.293 2.637 1.123 3.516 2.246 1.709 2.197 2.783 5.322 3.125 9.473l48.144 204.93c-35.645 2.881-77.93 2.148-106.93 3.418-155.37 6.836-310.5 17.236-465.33 31.201-23.291 2.1-47.217 6.738-71.826 13.916 6.152-26.953 14.551-55.127 19.775-78.32 20.752-92.285 43.018-185.16 66.797-278.56 1.465-5.713 4.199-19.873 8.203-42.432 0.147-1.074 1.123-1.855 2.197-1.855l457.72-0.049z" fill="#F6EEE6"/> <path d="m1977.1 4000.5 314.16-0.098 28.467 185.89c0.342 2.1 0.195 4.199-0.439 6.201l-42.139 142.24c-12.842-4.003-21.631-5.615-26.367-4.882-14.551 2.246-29.004 4.834-44.238 4.98-131.25 1.563-270.7 4.541-418.31 8.887-0.293 0.049-19.092 0.146-56.396 0.391-23.926 0.146-47.559 1.758-70.899 4.785l-43.75-197.85c37.109 3.321 74.268 5.176 111.43 5.616 9.814 0.146 16.504 0.391 20.02 0.781 6.348 0.732 12.89 2.051 19.629 4.053 17.774 5.273 36.035 9.863 54.736 13.77 47.412 9.814 62.012-17.969 74.463-59.229 6.494-21.436 8.984-43.506 7.52-66.211l21.045-44.775c1.172-2.539 3.76-4.15 6.543-4.15l44.53-0.392z" fill="#F6EEE6"/> <path d="m3744.6 4000.2 19.092 86.426c-4.639-2.734-8.398-6.494-11.377-11.23-0.928-1.465-2.832-1.904-4.346-1.074l-12.989 7.52c-3.71 2.148-4.003 7.324-0.586 9.912 9.229 6.835 20.654 12.012 34.375 15.479l57.813 269.78c-77.979-6.738-155.22-12.695-231.79-17.822-34.228-2.295-63.428-1.465-87.646 2.539l-127.34-361.86 364.8 0.34z" fill="#F6EEE6"/> <path d="m3958.8 4034.7c-18.164 4.248-39.697 7.422-64.551 9.473-22.999 1.904-48.389 6.689-76.27 14.404l-10.742-53.906c-0.439-2.051 0.146-3.614 1.758-4.688 0.488-0.342 1.026-0.488 1.612-0.488l129.74 0.83c1.416 0 2.735 0.83 3.321 2.1l15.136 32.275z" fill="#F6EEE6"/> <path d="m1742 4016c7.91 13.965 13.183 22.802 15.82 26.465 18.555 25.928 79.541 24.853 106.35 19.141 13.037-2.783 26.66-6.738 40.82-11.865 1.465 22.705-1.025 44.775-7.52 66.211-12.451 41.26-27.051 69.043-74.463 59.229-18.701-3.906-36.963-8.496-54.736-13.77-6.738-2.002-13.281-3.32-19.629-4.053-3.516-0.391-10.205-0.635-20.02-0.781-37.158-0.44-74.317-2.295-111.43-5.616-20.556 4.395-39.551 3.174-57.031-3.613-0.342-4.15-1.416-7.275-3.125-9.473-0.879-1.123-2.148-1.953-3.516-2.246-22.51-5.127-57.959-16.749-72.412-35.791-0.977-1.318-1.611-2.832-1.855-4.443-4.004-27.979 33.496-34.522 55.274-37.354l58.691-9.229c47.314-8.447 93.262-19.287 137.79-32.471 3.663-1.074 7.325-1.171 10.987-0.341z" fill="#1B1E31"/> <path d="m3333 4029.6 153.37 371.58c-16.162-9.228-25.928-22.949-29.199-41.162-0.292-1.611-1.416-2.978-2.93-3.662-10.693-4.541-21.484-6.787-32.275-6.835-36.475-0.196-74.072-1.563-112.89-4.053-16.455-1.074-32.568 0.391-48.828 2.246 11.523-53.955 22.949-107.96 34.228-161.96 9.375-45.117 24.951-101.42 34.668-152.88 0.343-1.613 1.612-2.736 3.858-3.273z" fill="#F6EEE6"/> <path d="m4349 4046.4c25.977-4.394 55.029-4.492 87.109-0.293 25 3.271 122.51 16.406 130.37 36.67 1.757 4.541 0 9.912-4.297 13.232-6.738 5.127-14.258 8.984-22.607 11.572-24.365 7.471-51.855 13.721-82.568 18.652-47.119 7.568-94.482 12.598-142.04 15.088-87.354 4.492-171.97 5.322-253.91 2.539-33.203-1.124-84.619-4.639-154.2-10.449-13.232-1.074-26.025-2.588-38.379-4.59-12.647-2.002-25.342-4.053-38.184-6.152l-12.305-64.014c27.881-7.715 53.272-12.5 76.27-14.404 24.853-2.051 46.386-5.225 64.551-9.473 16.211 27.881 55.957 63.427 91.26 63.477 113.33 0.049 186.04-0.244 218.21-0.928 30.613-0.683 63.621-27.636 80.711-50.927z" fill="#E3D2CA"/> <path d="m3763.7 4086.6 5.078 20.606c-13.721-3.467-25.146-8.643-34.375-15.479-3.417-2.588-3.125-7.764 0.586-9.912l12.989-7.52c1.514-0.83 3.418-0.39 4.346 1.074 2.978 4.737 6.738 8.497 11.376 11.231z" fill="#E3D2CA"/> <path d="m1617.2 4151 43.75 197.85 33.105 150.93c0.391 1.709-0.928 3.369-2.734 3.369h-40.869c-1.807 0-3.418-1.22-3.857-2.978l-38.281-147.85-48.144-204.93c17.479 6.788 36.474 8.009 57.03 3.614z" fill="#34344C"/> <path d="m2343.4 4295.8c0.049 15.576-1.563 25.488-4.834 29.833-11.572 15.284-20.264 31.397-26.025 48.34-2.099 0.586-4.102 0.683-5.908 0.293-1.563-0.342-2.49-1.953-1.953-3.467l31.054-94.043c0.293-0.928 1.27-1.465 2.198-1.318 0.976 0.195 1.66 1.025 1.66 2.002-0.098 7.374 1.171 13.477 3.808 18.36z" fill="#F6EEE6"/> <path d="m2469.3 4289.8 3.418 43.066c-0.342 3.76-0.244 6.299 0.391 7.618-26.66 30.273-60.4 48.779-101.17 55.469-9.375 1.514-17.773 1.27-25.146-0.781-0.44-0.146-0.879-0.342-1.27-0.586l-32.959-20.557c5.762-16.943 14.453-33.057 26.025-48.34 3.271-4.345 4.883-14.257 4.834-29.833 43.701 1.219 85.645-0.832 125.88-6.056z" fill="#F4967D"/> <path d="m2830.2 4324.9c-0.634 3.906-0.341 7.031 0.928 9.375 0.733 1.367 2.344 2.002 3.858 1.611 8.74-2.344 14.745-3.418 18.066-3.223 30.615 1.807 60.937 2.929 90.966 3.369 7.422 0.098 15.332 1.074 23.78 2.881 0.781 0.195 1.514 0.586 2.1 1.172l5.761 5.762c1.563 1.563 4.199 1.221 5.274-0.733l0.634-1.171 14.795 112.4c1.123 8.74 8.594 15.38 17.578 15.527h0.635c8.496 0.196 15.332-6.787 14.795-15.039l-8.301-120.07c46.875-0.635 93.604 0.684 140.23 3.955 15.283 1.074 30.615 3.857 45.899 8.349-15.674 72.315-28.662 145.26-38.965 218.75-0.098 0.537 0.293 0.976 0.83 0.976h41.944c0.83 0 1.562-0.586 1.709-1.367l47.607-219.68c16.26-1.855 32.373-3.32 48.828-2.246 38.818 2.49 76.416 3.857 112.89 4.053 10.791 0.049 21.582 2.295 32.275 6.835 1.514 0.684 2.637 2.051 2.93 3.662 3.271 18.213 13.037 31.934 29.199 41.162 8.008 21.924 13.867 35.596 17.53 41.065 2.636 3.955 6.835 5.811 12.646 5.566 15.43-0.635 18.018-13.867 12.939-27.344-6.689-17.627-14.111-37.207-22.363-58.74 24.219-4.004 53.418-4.834 87.646-2.539 76.563 5.127 153.81 11.084 231.79 17.822l27.637 130.13c0.293 1.563 1.709 2.686 3.271 2.637l39.551-0.244c1.221 0 2.148-1.123 1.953-2.344l-21.192-125.29c25.684-6.055 48.438 1.807 69.043 4.102 107.03 11.914 242.43 26.221 353.17 59.863 16.553 5.029 30.371 11.572 41.357 19.531 39.453 28.662-45.264 53.662-60.059 57.568-74.512 19.678-147.85 29.639-224.95 39.99-39.209 5.274-79.541 9.864-121 13.819-131.25 12.5-272.8 22.949-424.71 31.396-197.75 10.938-398.29 17.48-601.56 19.678-26.025 0.293-58.691 2.637-82.08 2.783-275.05 1.807-461.04 2.051-557.96 0.781-230.81-3.076-446.88-8.643-648.19-16.65-198.78-7.959-418.36-22.51-636.18-44.629-66.943-6.836-117.09-15.723-183.69-26.172-18.604-2.93-42.041-7.569-70.313-13.867-15.869-3.516-133.15-29.737-89.404-64.454 7.324-5.81 16.357-10.546 27.051-14.208 32.764-11.23 66.211-20.459 100.24-27.734 47.754-10.107 96.045-16.797 144.87-20.02l-28.223 130.57c-0.195 0.732 0.391 1.465 1.172 1.465h43.262c2.295 0 4.297-1.563 4.834-3.809l29.737-131.06c24.609-7.178 48.535-11.816 71.826-13.916 154.83-13.965 309.96-24.365 465.33-31.201 29.004-1.27 71.289-0.537 106.93-3.418l38.281 147.85c0.439 1.758 2.051 2.978 3.857 2.978h40.869c1.807 0 3.125-1.66 2.734-3.369l-33.105-150.93c23.34-3.027 46.973-4.639 70.899-4.785 37.304-0.245 56.103-0.342 56.396-0.391 147.61-4.346 287.06-7.324 418.31-8.887 15.234-0.146 29.688-2.734 44.238-4.98 4.737-0.732 13.525 0.879 26.367 4.882l-23.096 76.368c-0.928 3.174-3.027 5.908-5.859 7.715-16.162 10.107-33.789 22.363-48.535 30.908-33.203 19.238-58.398 35.01-75.635 47.314-11.963 8.545-19.629 16.309-23.047 23.34-12.5 25.635 16.797 33.789 35.254 34.717 78.369 3.857 141.26-17.09 213.96-47.95 31.592-13.428 65.625-13.769 100.73-21.045 39.111-8.056 45.215-35.107 40.82-71.142-2.197-17.969-5.859-37.646-10.986-59.033-1.367-5.665-3.955-10.792-7.715-15.43-0.635-1.318-0.732-3.857-0.391-7.618 24.561-2.685 51.904-3.466 82.031-2.343 48.584 1.807 105.13 2.686 169.73 2.637 0.244 0 10.645-0.635 31.104-1.855 12.549-0.732 24.951 0.293 37.11 3.125-0.147 15.82-0.44 31.739-0.83 47.706-0.586 24.121 31.738 27.979 34.131 1.172 1.712-19.335 3.128-38.817 4.202-58.397z" fill="#E3D2CA"/> </svg>